<svg xmlns="http://www.w3.org/2000/svg" width="912" height="684" viewBox="0 0 912 684">
    <defs>
        <style>
            .prefix__cls-3{fill-rule:evenodd}
        </style>
    </defs>
    <g id="prefix__react-group-59" transform="translate(-.345 -.244)">
        <g id="prefix__react-group-60" transform="translate(-.007 .244)">
            <path id="prefix__react-rect-62" d="M0 0H912V684H0z" transform="translate(.353)" style="fill:#fff"/>
            <path id="prefix__react-path-63" d="M371.887 193.55L370 224.383c4.045-1.165 29.779-8.737 28.19-1.06-1.14 5.506-8.376 11.463-12.062 15.3q-5.089 5.295-10.468 10.3 9.876-3.78 19.91-7.14c5.06-1.689 10.157-3.339 15.341-4.605 1.924-.471 7.121-2.39 8.939-1.081 4.777 3.438-21.144 28.762-24.7 32.332a165.892 165.892 0 0 1 15.391-6.276c3.775-1.314 15.438-6.336 18.779-2.048 3.576 4.588-5.283 15.125-7.74 18.466a170.155 170.155 0 0 1-11.338 13.77c16.636 14.943 36.186 28.242 56.991 36.508 15.255 6.061 30.24 7.6 46.337 4.278 16.537-3.418 32.4-9.972 47.473-17.465a270.823 270.823 0 0 0 25.915-14.513q-5.147-6.262-10-12.761c-4.62-6.177-10.3-12.926-12.933-20.279-2.578-7.2 7.094-5.792 11.734-5.4a155.454 155.454 0 0 1 20 3.2q-6.983-4.857-13.706-10.083c-5.838-4.531-13.625-9.655-17.446-16.173-3.36-5.732 4.015-4.285 7.425-3.533 8.13 1.791 16.041 4.843 23.8 7.82q8.518 3.27 16.912 6.868-5.2-4.524-10.044-9.453c-4.332-4.4-10.173-9.783-12.115-15.847-3.955-12.351 22.648-3.034 27.191-1.128l-2.516-38.384-105.674 28.125c-3.806 1.013-8.571 3.219-12.541 3.337-3.6.107-7.939-1.512-11.446-2.181L421.854 203.1l-49.967-9.547" transform="translate(-40.212 -20.477)" style="fill-rule:evenodd;fill:#ff9465"/>
            <g id="prefix__react-group-61" transform="translate(191.637 35.058)">
                <path id="prefix__react-path-64" d="M518.643 578.089a53.483 53.483 0 0 1-12.482 4.983c-2.481.663-6.581 2.708-8.761.834-1.047-.9-1.286-2.945-1.9-4.129a34.259 34.259 0 0 0-3.668-5.154c-3.154-4.017-6.436-7.893-9.871-11.673-1.627-1.791-4.6-5.972-7.467-5.7-3.574.343-3.488 5.29-2.592 7.818 2.852 8.046 11.484 15.061 17.123 21.123-1.434 2.206-9.308 1.943-11.494 1.427-3.338-.788-3.676-3.165-5.2-5.884-3.563-6.354-10.792-9.909-16.735-13.645-2.167-1.363-6.771-5.139-9.595-4.189-2.676.9-2.56 4.318-1.708 6.551 1.287 3.373 4.95 5.713 7.658 7.845a71.321 71.321 0 0 1 9.923 9.414c-4.338.354-8.66.965-12.987 1.322-5.233.432-9.594-2.44-14.411-4.067-4.476-1.513-8.936-2.791-13.338-4.534-4.941-1.957-10.118-2.638-15.1-4.355-19.563-6.738-38.731-15.212-57.583-23.754-8.983-4.071-17.781-8.144-27.141-11.329-6.821-2.322-17.54-6.95-19.171-15.075-.861-4.293 2.276-8.91 2.738-13.2a38.741 38.741 0 0 0-1.422-15.44c-1.355-4.265-3.6-8.215-5.37-12.31-2.061-4.773-.216-4.7 3.789-5.238 4.793-.65 10.387-3.348 14.893-5.106a97.573 97.573 0 0 0 15.089-7.765 55.154 55.154 0 0 0 11.464-9.707c3.482-3.748 5.736-8.188 9.1-12.027 12.424 15.279 24.233 30.791 37.434 45.41a113.626 113.626 0 0 0 20.684 17.853c3.206 2.192 6.387 4.694 9.88 6.426 4.368 2.168 9.251 3.513 13.741 5.492a419.976 419.976 0 0 1 49.7 25.664c7.77 4.734 14.29 10.162 21.131 16.1 2.13 1.849 19.573 12.624 13.649 16.014M316.7 452.915c-2.782 1.261-5.434 2.9-8.4 3.706.841-5.119 5.619-12.842 11.744-11.992 2.341.324 4.106 2.142 3.077 4.647-.935 2.277-4.438 2.743-6.419 3.639M123.067 314.057c-3.154 1.741-6.093 2.756-7.942-.982 1.37-.275 7.592-1.1 7.942.982m-5.251-10.566c-2.437-.739-.488-1.516.351-2.408a30.043 30.043 0 0 1 3.573-3.531c3.343-1.771 5.927 4.818 7.525 6.957-3.784-.336-7.765.1-11.45-1.018m26.059 22.815c-4.619.783-4.107-5-3.969-7.925.975 1.189 7.571 7.315 3.969 7.925m15.309-9.983c-5.632.95-9.353-8.78-8.344-13.036.888-3.749 5.253-5.843 8.728-6.4 3.368-.536 8.057.2 9.057 4.079.884 3.433-5.687 14.719-9.441 15.353M292.5 463.212c-4.047 1.244-8.013 1.4-12.081 2.621-4.616 1.386-8.887 1.263-13.512 2.205-1.882.382-6.957 3.124-8.792 2.512-1.818-.607-4.449-6.248-5.494-7.716 8.183-3.4 15.163-7.793 20.556-14.959 4.289-5.7 8.888-14.237 6.19-21.593-3.043-8.293-13.532-10.093-20.525-6.629a40.336 40.336 0 0 0-9.315 6.171c-3.119 2.854-4.345 5.97-6.366 9.489-2.044 3.561-3.477 1.58-5.519-1.443-1.745-2.584-1.517-5.193-3.7-7.743-1.112-1.3-2.835-2.556-3.415-4.236-.368-1.065.407-2.954-.291-3.793-.982-1.178-2.176.207-3-.846-.6-.764-.4-2.506-1.019-3.462a8.576 8.576 0 0 0-1.788-1.393q-1.2-.592-.438-1.481c-.635-1.175-.023-1.572-1.383-3a36.682 36.682 0 0 1-5.561-7c-.69-1.2-.621-2.99-1.478-4.032-1.175-1.431-3.134-1.216-4.144-2.987-.9-1.578-.3-4.339-1.783-5.771q-1.174-.335-2.35-.66a3.386 3.386 0 0 1-1.031-2.085c-.825-1.27-.988-2.761-2.03-4.1-1.993-2.565-4.673-4.935-6.433-7.64-1.85-2.843-.869-3.322 2.345-4.339a38.963 38.963 0 0 0 8.232-3.335c12.422-7.229 24.2-26.406 4.482-32.264-7.317-2.174-13.328-8.02-21.442-5.722a23.316 23.316 0 0 0-9.477 5.634c-1.813 1.74-3.492 6.394-5.718 7.286-4 1.6-2.31-2.4-3.446-4.241-.542-.878-2.726-1.89-3.535-2.689a15.674 15.674 0 0 1-2.527-3.278 19.941 19.941 0 0 0-3.737-5.1c-.665-.661-3.987-4.077-.991-3.631-1.213-3.7.557-4.253 3-6.955 2.874-3.172 5.841-7.58 5.858-12.026.033-8.534-10.08-12.358-16.431-7.292-1.292 1.031-8.936 10.982-7.372 4.636.843-3.422 8.651-12.357 12.271-10.045-4.057-5.912-13.375 8.443-15.55 11.38-1.852-3.41-1.983-6.077-5.048-8.717-2.494 4-1.177-.371-1.727-1.261-1.188-1.919-.536.276-1.18-.406a30.44 30.44 0 0 1-2.919-2.644c-1.462 1.984-.878-.151-1.326-.892-1.048-1.733-.642-2.737-2.438-4.244-1.307-1.1-3.881-2.8-5.639-2.953-2.028-.18-2.59.6-4.655.022-2.628-.731-5.936-1.853-4.664 2.543.924 3.195 4.679 5.01 5.5 8.274.828 3.285-2.42 6.6-4 9.29-2.024 3.456-3.679 3.173-7.346 3.952-2.343.5-5.471 1.564-3.461 4.406 1.435 2.031 4.8 1.6 6.693 2.807 2.656 1.687 2.619 5.846 6.01 6.569 3.734.8 5.874-3.361 9.023-4.365 2.239-.714 9.175-.634 10.937 1.047 2.4 2.291.327 6.667.931 9.513.9 4.22 3.754 4.477 7.364 4.613 4.445.166 6.008 4.434 8.4 7.819 5.6 7.93 10.466 16.383 16.2 24.207 2.539 3.464 6.253 6.546 8.332 10.306 2.567 4.643-1 7.321-4.072 10.654-4.019 4.355-7.019 9.311-10.5 14.071-3.1 4.23-6.947 3.177-11.9 3.177 1.1-2.274 2.43-3.692 5.144-3.416-2.838-3.465-5.107.5-6.948 2.694-2.663 3.175-6.134 3.941-9.555 6.029-1.211.738-7.8 5.526-5.8 7.161.228.185 11.139-6.992 12.382-7.651 0 2.65-.579 5.4-.208 8.038.272 1.932 1.631 3.948 1.341 5.957-.549 3.792-5.449 6.779-7.553 9.734-1.584 2.224-1.2 3.978-2.007 6.365-.735 2.178-.349 1.519-2.181 2.192-3.73 1.37-10.007.631-13.384-1.317-2.1-1.209-3.7-3.12-5.407-4.8-1.283-1.27-4.509-3.438-4.865-5.215-.612-3.059 5.461-8.742 6.663-11.9 3.394-8.9-2.427-15.825-11.484-16.331 2.791-2.154 6.252-.531 9.194.291-5.03-6.97-13.621-1.235-17.888 3.5-2.915-7.369-4.321-15.143-6.1-22.829-1.213-5.232-5.831-14.573-3.772-19.961 1-2.6 3.807-4.057 5.751-5.863a35.833 35.833 0 0 0 5.716-7.047c3.806-5.985 6-13.539.764-19.436l4.777-.785c-2.59-2.433-6.675-1.248-10.035-1.969-2.132-.458-8.268-.161-9.691-1.368-1.712-1.451-.615-8.127-.553-10.1.141-4.617.527-9.057 1.037-13.646.483-4.336.386-9.02 1.282-13.28.727-3.457 3.051-4.51 5.734-6.547 6.41-4.871 11.634-10.8 9.445-19.189l2.327-.37c-2.508-1.814-5.754-1.154-8.543-2.113 2.562-7.211 8.228-19.887 17.428-20.569.317 3.223.1 7.057 2.275 9.726 2.476 3.037 6.822 3.344 10.176 1.737a16.63 16.63 0 0 0 7.3-7.608c.949-2.068.777-5.566 2.443-7.205 2.234-2.2 17.637-.873 17.165 2.839-.278 2.182-4.4 5.85-5.548 7.784a35.528 35.528 0 0 0-4.567 11.433c-1.174 6.173-.494 14.322 5.774 17.567 7.129 3.692 15.818-1 21.665-5.057a102.651 102.651 0 0 0 9.253-7.265 49.518 49.518 0 0 0 4.509-4.35c1.016-1.153 1.829-3.012 3.08-3.875 2.956-2.04 5.854 1.421 8.356 3.169a129.648 129.648 0 0 0 12.5 7.92c8.876 4.808 16.992 11.177 24.839 17.5 7.894 6.362 16.033 12.905 22.427 20.83-3.873 2.382-3.182 3-4.905 7.251-1.223 3.016-2.907 5.583-3.1 8.934a11.431 11.431 0 0 0 9.011 11.991 14.194 14.194 0 0 0 9.073-1.146c2.268-1 4.53-3.466 6.9-4.078 4.406-1.137 7.933 7.188 10.4 10.12 10.97 13.023 22.566 25.531 32.9 39.086 1.144 1.5 4.542 4.434 4.818 6.422.4 2.855-4.094 5.574-5.956 7.211-.978.859-11.35 10.615-7.867 12.165.992.442 3.9-5.544 4.625-6.056 2.72-1.916.663 1.84.5 3.739-.405 4.72 2.837 7.292 7.394 6.694 4.864-.638 9.193-4.478 12.2-8.1 3.771 4.368 9.667 10.971 10.757 16.807.7 3.728-2.529 12.852 3.493 13.612.919.116 4.245-2.352 4.865-.951.517 1.17-3.078 3.169-3.6 3.556a35.331 35.331 0 0 0-5.343 5.43c-2.1 2.352-4.97 4.333-7.333 6.587-2.49 2.374-7.413 8.822-10.7 5.707-1.651-1.565-1.217-3.612-3.861-4.531-2.408-.836-5.459.224-7.7 1.152-2.519 1.044-10.817 4.855-11.737 7.994-1.27 4.327 5.588-.875 6.807-1.636-1.39 3.53-2.159 8.64-5.7 10.7-2.942 1.711-7.174 2.717-10.4 3.709m-47.033-26.7c2.355-7.568 16.241-21.063 25.018-16.842-10.229 2.143-18.346 9.144-25.018 16.842m5.193 21.673c-3.423-1.907-3.238-7.448-4.433-10.689-.686-1.86-2.057-3.219-1.654-5.282.472-2.419 3.558-5.109 5.2-6.854 5.17-5.493 14.268-13 22.589-11.739 10.592 1.6 3.411 15.823-.2 20.719-3.074 4.175-14.918 17.518-21.507 13.846m-24.709-9.256a292.978 292.978 0 0 1-34.167-3.891c-4.006-.746-7.362-.635-5.07-5.241.757-1.52 5.32-11.046 6.35-10.773.611.162.471 6.71.651 7.46.809 3.371 3.08 6.512 6.909 6.3 6.265-.349 10.3-8.449 13.6-12.8 2.642 3.553 4.555 7.5 7.212 10.994 1.27 1.67 5.69 5.555 4.515 7.951M158.8 403.97c-1.921 4.41-5.786 8.6-8.474 12.6-1.52-3.217-2.589-10.6 1.016-12.98 1.364-.9 8.673-2.406 7.458.382m39.723 13.128c.528-1.7 1.114-3.382 1.768-5.035 1.121 3.527 1.694 3.632-1.768 5.035m9.8 3.612c1.39 2.356 3.708 4.674 3.344 7.633-.276 2.242-2.3 4.54-3.75 6.1-2.4 2.585-7.7 7.547-11.173 4.114-2.9-2.868-1.89-10.752-.541-13.978 1.926-4.61 8.806-9.487 12.121-3.873m-6.8-4.829c.8-.317-.877-5.46.677-5.973 1.355 3.09 2.632 3.926-.677 5.973m-21.887-69.221c-.516-1.9-1.7-1.818-1.273-4.164a11.809 11.809 0 0 1 2.427-4.4 23.217 23.217 0 0 1 6.914-5.948c5.559-3.2 13.192-4.528 18.169.481-4.653.734-18.916 5.327-19.006 11.691 5.174-1 9.242-6.194 14.432-7.831a21.26 21.26 0 0 1 13.116.17c11.6 3.885 6.776 13.91.23 20.421A39.656 39.656 0 0 1 201 365.826a9.412 9.412 0 0 1-6.121.56c-.434-.087-.941-.892-1.461-1.064-1.293-.429-.918 1.023-1.983.37-.929-.568-2.912-4.236-3.544-5.286-1.006-1.671-1.475-3.3-2.71-4.822s-1.838-3.573-2.982-4.954c-.549-.665-2.054-.638-2.458-1.287-.606-.974.166-1.684-.106-2.681m-17.813 74.763c2.636-4.58 7.146-8.469 10.635-12.472.215 6.58-4.5 11.085-10.635 12.472m3.562 2.116c5.444-1.915 8.444-6.5 9-12.055.7-7.039 5.124-10.732 7.785-17.056 1.02-2.423 2.209-10.4 6.164-8.115 1.357.783 2.161 3.727 2.868 5.057 1.71 3.218 3.655 6.337 5.469 9.5 1.477 2.573 3.691 5.159 3.039 8.257-.568 2.7-2.4 5.577-3.468 8.123-2.529 6.014-5.85 11.553-8.626 17.435-1.12 2.373-2.445 7.991-5.864 7.962-2.706-.023-2.4-2.982-4.185-4-2.249-1.28-4.806 1.156-6.654 2.166a9.688 9.688 0 0 1 10.027-4.95c-5.006-4.985-8.388 1.741-12.684 3.239-4.07 1.42-11.292-5.275-14.719-7.172 1.311-2.22 2.5-4.936 4.751-6.4 2.139-1.387 4.764-1.174 7.1-2M121.128 469.1c.6-2.87 2.28-4.567 3.349-7.174 1.238 3.16-1.661 5.025-3.349 7.174m86.494 17.614c-.292 9.666-1.082 19.307-1.367 28.976-.131 4.459-.921 8.712-1.445 13.119-.443 3.727-.217 7.388-2.564 10.572-3.7 5.02-10.891 6.463-16.474 8.323-4.1 1.365-8.247 2.6-12.3 4.122-3.643 1.365-6.58 3.434-10.044 5.056-3.1 1.452-6.444 2.313-9.529 3.86-3.19 1.6-5.712 3.55-8.99 4.975-3.923 1.705-7.156 4.74-10.645 7.148-3.072 2.12-6.321 3.758-8.964 6.424-2.478 2.5-5.614 3.6-8.422 5.821a67.459 67.459 0 0 1-9.357 5.72c-6.719 3.776-15.785 10.225-23.871 6.557 2.313-2.954 7.046-5.793 7.406-9.863.468-5.3-4.146-3.35-6.818-1.657-4.047 2.564-6.286 5.659-9.367 9.077-3.6 3.995-8.152 1.307-12.559.183 3.013-2.713 6-5.451 9.011-8.169 2.54-2.293 6.425-4.774 7.972-7.945 1.105-2.268 1.051-5.377-1.616-6.554-2.984-1.316-6.358 1.46-8.568 3.113-5.867 4.39-9.731 9.956-13.583 16.065-2.049 3.248-2.993 3-6.763 2.35-3.995-.688-7.99-1.422-12.018-1.9 5.336-5.48 11.3-11.416 15.513-17.828 1.365-2.078 3.146-7.553-1.013-8.057-1.714-.207-5.126 3.3-6.449 4.242a57.612 57.612 0 0 0-15.163 15.369c-1.264 1.99-1.661 4.2-4.109 4.369-3.2.217-9.148-2.838-12.235-3.782 5.9-7.439 11.761-14.931 18.655-21.491a118.778 118.778 0 0 1 20.061-15.03 235.99 235.99 0 0 0 22.625-16.516c6.978-5.6 14.267-10.891 20.69-17.149a225.369 225.369 0 0 0 33.72-42.076 111.986 111.986 0 0 0 6.1-10.991c1.692-3.554 2.472-7.8 4.756-11.037.789-1.117 1.9-1.947 2.6-3.112.664-1.1.439-2.424 1.45-3.4 2.34-2.246 6.6-.892 8.787.683 3.517 2.531 6.362 5.6 10.227 7.724a50.774 50.774 0 0 0 12.4 4.728c10.061 2.446 20.036 4.453 30.286 5.94-1.055 3.912 1.535 4.528 2.393 8.047 1.042 4.271-.293 9.642-.424 13.992m-96.879-65.228c-2.281-3.389-4.317-6.933-6.559-10.344-1.365-2.078-3.058-4.309-1.891-6.85 1.966-4.284 8.9-5.046 12.664-3.179 8.556 4.246.608 16.385-4.214 20.373M88.1 343.971c-.788-6.625 1.746-11.324 7.738-14.8 4.271-2.476 7.711.908 7.127 5.42-.888 6.876-8.234 14.523-13.841 18.11-.367-2.907-.677-5.822-1.025-8.733m-.913-18.954c1.768-1.4 6.5.387 8.55.509l-8.451 7.383c-.184-1.689-1.73-6.6-.1-7.893m9.505-63.975c14.254-1.853-2.155 13.444-6.285 15.841.672-3.255 2.323-15.325 6.285-15.841m37.946-26.781c-1.914 7.84-16.794 16.393-16.949 3.55-.057-4.785 2.63-4.4 6.554-4.857 2.238-.261 11.489-3.175 10.4 1.307M83.24 246.4c-1.671 4.384-3.01 8.882-4.647 13.271a14.394 14.394 0 0 1-2.93 4.819c-1.131 1.287-2.477 1.613-2.432 3.648a9.587 9.587 0 0 0 3.671-1.932c-.278 4.035-1.7 8.377-2.394 12.4a124.254 124.254 0 0 0-1.771 14.538c-.554 10.634-.559 21.231-.326 31.871.119 5.422.173 10.847.466 16.263.146 2.694.311 5.4.644 8.078.135 1.081.92 3.383.435 4.4-1.9 3.977-10.337-6.948-14-5.344.527-3.027-.689-2.365-2.718-3.853-.983-.722-1.622-1.949-2.648-2.592a6.431 6.431 0 0 0-1.024-.893q-.636-.867-1.341.184c-4.126-2.467-5.192-7.723-7.407-11.26-1.139-1.818-2.24-2.1-2.434-4.615-.168-2.191.161-4.423.072-6.623a32.851 32.851 0 0 0-.942-7.62c-.808-2.79-1.92-2.562-4.084-4.049a2.271 2.271 0 0 0 1.32-1.47c-.691.123-2.792.98-3.314.364-1.026-1.21 1.4-1.371 2.032-1.853-2.716-1.206-2.131-2.2-1.151-4.407.278-.625.542-1.56.778-2.087.516-1.152.812-.422.982-1.853.162-1.364-1.048-4.048-1.4-5.5a14.961 14.961 0 0 1-.391-7.087c.435-2.057 1.6-3.92 1.686-6.035.023-.594-.882-.791-.894-1.364-.018-.838.764-1.207.968-1.981.519-1.982.285-4.078 1.174-5.96a34.06 34.06 0 0 1 3.558-5.35c.792-1.022 2.736-2.173 2.949-3.522.141-.894-1.25-.791-1.188-1.464.084-.911.849-1.207 1.059-1.884.578-1.859.724-3.646 2.218-5.07 1.883-1.793 2.7-1.042 2.778-4 .038-1.443-1.116-1.665-.5-3.329.336-.9 1.327-1.437 1.961-2.077a26.4 26.4 0 0 0 4.492-5.932c1.186-2.073 3.076-3.279 4.291-5.069 1.582-2.333-.783-3.49 2.427-4.149-.456-1.449-.941-2.619.259-3.846.757-.773 2.678-.3 3.349-1.195.768-1.027-.367-3.461.79-4.128.941-.541 2.351 1.128 3.83.3 1.127-.63 2.829-4.108 2.467-5.386 2.914 1.639 2.188.51 3.583-1.593.313-.471 1.261-.576 1.53-1.052.539-.951.416-1.921 1.191-2.694 1.293-1.287 3.408-.957 4.83-1.877 1.175-.76 1.113-1.578 2.051-2.3.8-.612 2.118-.73 2.9-1.364 1.526-1.243 1.541-2.556 3.45-3.626a40.924 40.924 0 0 0 6.32-4.026c1.341-1.095 2.614-3.036 4.182-3.759 2.169-1 3.859-1.07 5.982-2.5 1.534-1.031 2.984-2.732 4.49-3.6 1.136-.654 1.932-.513 3.364-.919 2.577-.731 3.2-3.159 5.306-4.147 1.443-.679 3.544-.057 5.128-.414 4.931-1.107 9.8-3.495 14.75-4.817 6.04-1.614 12.122-3.027 18.209-4.453a120.847 120.847 0 0 1-19.941 20.441c-2.371 1.977-15.366 10.986-8.362 14.834 2.812 1.544 8.92-3.444 11.19-4.663a154.6 154.6 0 0 1 14.094-6.407c7.742-3.211 17.825-8.923 26.428-8.463-5.238 6.425-11.775 11.584-17.765 17.26-5.505 5.217-13.8 10.109-11.2 18.647-7.733-1.967-14.678-4.292-22.717-3.777-3.6.231-7.2-.2-10.789.3a74.618 74.618 0 0 0-11.314 3c-2.964.9-6.238.976-8.965 2.481a36.715 36.715 0 0 0-4.131 2.67 15.186 15.186 0 0 0-3.176 3.588c-4.421 5.661-8.7 10.969-11.327 17.866m-24.194 107.16c-.242-.98-.461-1.874-.738-2.993 2.461 1.515 2.461 1.515.738 2.993m-18.6-31.207a1.775 1.775 0 0 1-1.948.192c-.461-.45.751-2.2.945-2.575.48.369 1.585 1.576 1 2.383m-5.269-11.358q.489-1.8.978-3.589c.4 1.109 2.2 2.335 2.243 3.392.025.7-2.865.352-3.222.2m1.046 1.641c2.824 1.859 3.119 4.052 3.2 7.261-3.379-1.119-2.894-4.39-3.2-7.261m49.111-126.62c-.285.772-1.495 3.175-2.381 1.494-.283-.538 1.792-1.273 2.381-1.494m-.811-2.62c.7-.629 2.1.154 2.894-.355.553-.357.37-.718.63-.929.052-.043.8-1.565 1.112-1.911.544-.608 1.732-.986 2.393-1.535 1.849-1.533 2.893-3.548 4.057-5.6 1.388-2.448 1.831-2.732 4.07-3.852a13.976 13.976 0 0 0 4-3.032c1.448-1.513 1.341-2.6 2.529-4.249.587-.816 1.432-.917 2.116-1.575.82-.787 1.236-1.889 1.994-2.683.328-.344 1.379-.343 1.577-.637.253-.372.45-1.862.687-2.136l1.358 1.834c1.784-3.138 3.087-5.731 6.07-7.819 3.134-2.193 5.839-5.4 9.078-7.366.727-.441 2.211-.627 2.767-1.277.94-1.1.126-2.079.812-3.014.778-1.06 2.286-.2 3.275-.659 1.252-.578 1.61-2.267 3.223-2.08-5.3 6.272-5.235 16.03-5.516 23.863-.122 3.375 2 5.077-1.135 7.554-2.669 2.107-6.433 1.482-9.589 2.869-3.963 1.741-8.2 2.668-12.246 4.186-4.182 1.569-7.546 4.317-11.571 6.135-3.549 1.6-5.973 3.881-9.22 5.859-1.207.735-3.076 1.8-4.516.924-.9-.551-2.024-1.456-.848-2.518m59.869-52.584c.23-.891 4.755-3.233 5.869-4 1.671-1.149 4.144-3.953 6.008-2.839.646-2.588 3.167-5.468 5.395-6.016a31.094 31.094 0 0 0 9.142-4.578c.71-.54.944-1.33 1.78-1.837 1.455-.883 2.9-.4 4.3-1.6.215-.183 2.154-3.385 2.231-3.355.1.344.19.691.268 1.04a13.435 13.435 0 0 0 3.7-2.506c.208-.236-1.14-.85-.715-1.318.521-.572 1.684.068 2.211-.476-1.638 8.132-.418 18.6 7.832 22.723-9.811 1.061-19.394-1.89-29.327-.078a51.593 51.593 0 0 0-13.912 4.478c-2.65 1.34-6.038 6.14-8.676 3.81 1.047-1.4 2.643-2.263 3.895-3.447m47.607-23.4a13.807 13.807 0 0 1 14.839-4.656c6.562 1.882 3.795 6.467 2.8 11.558-1.894-2.776-6-5.53-9.488-5.613-4.952-.118-3.08 4.008-.106 5.486 2.7 1.343 7.339 1.717 9.275 4.16 1.883 2.377 1.162 6.263 1.465 9.066l-4.393-.653c1.229-6.541-4.18-6.858-9.223-8.7-5.1-1.863-9.346-5.538-5.171-10.645M208.445 91.3v6.071l-6.121-3.489 6.121-2.581m16.4 48.507a198.609 198.609 0 0 1 20.127 6.347c2.379.925 4.984 1.252 7.314 2.3 2.219.994 2.553.89 1.763 2.835-2.211 5.449-7.45 4.508-12.039 3.674-7.184-1.305-14.219-3.114-21.313-4.816-6.934-1.663-14.014-2.753-20.844-4.837a209.876 209.876 0 0 0-21.046-5.574c-2.1-.412-18.745-1.939-18.619-3.678 10.481-1.362 21.272-.02 31.8.121 10.942.147 22.245.754 32.857 3.631M215.6 118.73c.131-3.747.182-7.505.648-11.23 3.118 3.849 5.933 5 9.863 1.393 3.763-3.453 4.6-5.254 9.374-2.007 4.136 2.816 8.049 2.686 12.442.221 2.679-1.5 6.985-7.646 9.8-6.382 1.342.6 2.326 3.033 3.681 3.926a20.431 20.431 0 0 0 6.3 2.331c4.68 1.025 7.469-1.985 10.407-5.2 4.26-4.669 4.135-1.957 8.085 1.28 4.405 3.611 8.089 1.847 12.078-1.235 2.43 7.12 3.339 14.9 4.026 22.361.231 2.52 1.1 6.1-1.167 7.881-1.6 1.257-4.982 1.306-6.9 2a69.426 69.426 0 0 0-19.21 10.516c-2.238 1.757-4.189 3.909-7.247 3.509-2.914-.382-5.747-2.821-8.091-4.432-2.543-1.747-5.117-3.731-8.09-4.7-1.741-.571-4.529-.364-6.053-1.41-2.832-1.944.5-7.044-.2-10.468-.534-2.6-2.03-8.019-5.61-6.495-5.327 2.267-2.227 11.115.7 13.877a128.5 128.5 0 0 1-18.408-4.593c-4.465-1.526-6.58-6.566-6.419-11.136m100.509 18.249c12.3-3.454 23.814-5.784 36.616-6.412 5.667-.279 11.153-.1 16.757-.052 3.226.03 5.685-2.572 3.107-5.565-3.567-4.144-14.447-2.567-19.268-2.753a97.754 97.754 0 0 0-37.009 5.23c1.294-2.384 4.4-2.694 6.534-3.926a13.38 13.38 0 0 0 5.508-6.773c2.905-7.2-.019-13.975-3.059-20.548 5.971 1.606 12.147 5.123 18.148 6.016a11.924 11.924 0 0 1 3.179.525c.683.281.9 1.252 1.746 1.464.409.1 1.392-.822 1.855-.691 1.828.517.382.654 1.538 1.4.917.594.843 1.358 2.526 1.077.746-.123 1.555-1.277 1.948-1.309.5-.041.385-.65 1.151-.472 1.394.324 1.271 2.12 1.735 3 .5.941-.208 2.192 1.3 2.707 1.125.385 1.407-.8 2.363-.717a5.726 5.726 0 0 1 2.3 1.4 24.375 24.375 0 0 0 6.135 4.522c-.218-.22 1.047-.748.744-.873a10.929 10.929 0 0 1 1.105.233c1.283.292 1.96 2.261 2.608 2.979a12.718 12.718 0 0 0 4.715 3.286c2.889 1 2.8-.2 3.855 3.236 2.054-3.229 2.841 2.179 5.388 2.774 1.319.308 1.165-.257 2.364.433.823.473 1.372 1.923 1.992 2.622l.8-3.026c1.834 3.475 5.794 8.986 10.136 7.99 0 .949-.391 2.082.343 2.892.513.566 1.343-.077 1.745.252.35.287 1.187 1.43 1.456 1.618.528.37 1.488.641 1.947 1.011.4.325.6 1.878 1.053 2.44.843 1.055 2.3 1.264 2.99 2.53l.471-3.744c1.368 1.057 1.485 1.878 1.821 3.423.478 2.2-.156 1.686 1.362 2.615 1.492.914 2.27.811 3.638 2.4 1.341 1.554 1.353 2.512 3.288.893.36 1.2.476 2.747 1.436 3.665.726.694 3.731.723 4.018 2.362-5.646-4.764-1.931 2.471 0 .012.408 2.632 2.335 3.483 4.535 5.357 2.052 1.747 2.388 1.62 3.088 4.555a5.053 5.053 0 0 1 1.107.714c-2 .285 1.1 2.519 1.624 2.928.382.3.88-.414 1.515.069a14.8 14.8 0 0 1 1.909 2.564 54.271 54.271 0 0 0 4.474 5.482c1.82 1.8 2.7 4.076 4.452 6.181 1.938 2.337 2.987 5.024 4.607 7.561 1.541 2.413 3.587 4.35 5.372 6.559 2.844 3.516 3.811 11.26 9.114 11.463-.311.321.121 2.721.172 3.164.251 2.179.084 4.277 1.374 6.25.3-2.252 1.473-1.384 2.5-.2 1.7 1.968.207 1.473.3 3.467.109 2.418.384.547 1.3 2.658a20.614 20.614 0 0 1 1.5 4.561c-3 .237-4.367-2.21-5.474-4.581-.463-.992-.623-2.622-1.442-3.4-.872-.825-2.069-.89-2.965-1.811-1.72-1.769-2.465-4.528-4.492-6.249a29.764 29.764 0 0 1-4.69-5.19c-2.094-2.572-4.985-4.378-7.181-6.866s-2.021-1.132-4.785-2.034c-2.939-.961-7.69-10.2-11.392-6.641.146-2.328-3.34-4.517-5.1-5.361-.762-.364-1.648-.034-2.411-.581-.827-.593-.886-1.736-1.72-2.447a4.927 4.927 0 0 1-1.537.18c-.529-.268-.532-1.214-1-1.526-1.29-.862-2.828-1.766-4.2-2.5-3.328-1.785-6.27-3.983-9.481-6.132-2.751-1.841-6.081-5.167-9.261-6.137-2.777-.848-4.524-.416-6.8-2.114-1.239-.924-.875-1.235-2.865-1.81-1.9-.547-2.96-.266-3.964-2.276-1.757-3.517-.648-10.381-.988-14.325a72.691 72.691 0 0 0-1.881-12.545c-1.291-4.81-3-7.325-8.156-6.192-10.223 2.247-20.323 4.385-30.592 6.358-20.464 3.931-40.577 10.346-60.591 16.042-1.524.434-10.029 2.381-8.292-2.016.8-2.029 6.183-2.784 7.985-3.422 9.892-3.5 19.829-7.068 29.941-9.906m-3.438-8.951l-4.483 1.71v-4.156l4.483 2.446m-6.211-21.975c1.3 1.061 3.939-1.493 5.043-2.011a13.392 13.392 0 0 1 6.4-1.461 6.881 6.881 0 0 1 6.017 8.042c-1.205 6.563-10.556 9.667-15.713 12.233-.166-2.326-.918-5.122.713-7.134 1.416-1.747 4.162-1.62 5.469-3.478 3.288-4.67-5.623-5.093-7.615-1.38l-2.357-7.119c1.9-.314 1.063 1.5 2.048 2.308m9.2-12.847l-5.566 3.6c-.92-4.152 2.215-4.7 5.566-3.6m169.055 144.52c-2.43 1.16-3.038-1.61-4.785-1.729 2.064-1.269 2.064-1.269 4.785 1.729m9.882 60.469c.3 3.98.066 8.007.6 11.971.4 3.016 1.625 5.822 1.756 8.873a25.55 25.55 0 0 1-6.526 18.38 41.483 41.483 0 0 1-16.292 10.567c-2.621.876-5.357 2.82-7.9 3.539-2.816.8-5.492-.936-7.815 2.169-1.549-13.318-.417-27.234-.54-40.636-.122-13.431.022-26.866-2.25-40.152-2.023-11.833-6.012-25.142-13.365-34.822a56.14 56.14 0 0 0-10.542-10.165 49.389 49.389 0 0 0-6.266-4.47c-3.449-1.9-6.387-1.638-10.138-2.179-5.369-.775-10.359-1.43-15.748.082-5.016 1.408-10.541 3.011-15.034 5.457-4.476 2.437-9.674 3.441-14.32 5.623-3.161 1.485-9.726 6.445-13.233 5.552-3.395-.865-8.419-6.626-10.587-9.207-2.77-3.3-5.062-7.121-7.519-10.669-.863-1.246-2.622-3.171-2.846-4.771-.39-2.777.723-1.869 3.375-1.559a99.238 99.238 0 0 1 19.773 4.213c3.253 1.068 9.614 5.39 12.867 2.8 4.967-3.954-2.58-10.75-5.345-13.033-4.71-3.89-10.186-6.779-15.207-10.236-5.334-3.674-12.387-7.584-15.82-13.241 10.024 2.959 20.038 6.349 29.77 10.164a107.366 107.366 0 0 1 13.035 5.91c2.349 1.3 7.1 4.829 9.923 3.14 6.149-3.671-7.973-14.331-10.011-16.51-3.166-3.385-6.269-6.738-9.749-9.81-2.348-2.072-6.036-3.529-7.127-6.586 3.9 1.411 7.047 4.174 10.7 6.051a17.308 17.308 0 0 0 5.763 1.851 10.048 10.048 0 0 1 4.29 1.575 28.349 28.349 0 0 0 4.347 2.1c1.1.338 3.033.4 4 1.023q.74 1.056 1.529 2.076.883.26 1.739.6c.856.763 1.363 1.815 2.2 2.6 6.044 5.715 14.127 9.805 20.9 14.593 6.41 4.529 13.213 8.627 19.369 13.571 7.085 5.69 14.438 11.805 20.464 18.628a116.807 116.807 0 0 1 9.066 12.491c2.071 3.087 5.084 5.648 6.874 8.832 3.9 6.94 7.144 14.443 11.346 21.271 4.282 6.958 9.861 13.872 10.5 22.341m-57.591 40.27c1.167-4.816 7.754-10.441 11.963-12.565-2.121 5.248-7.773 8.827-11.963 12.565m10.861 16.8c-3.59 7.449-19.377 8.3-17.235-2.722 1.049-5.4 5.5-8.715 9.327-12.25 1.768-1.633 6.1-7.476 8.833-6.535-.129 4.2-.376 8.42-.367 12.621.006 2.8.712 6.249-.559 8.886m-4.563-85.854c1.457 3.271 2.908 6 .205 8.923-1.219 1.321-5.193 4.211-6.99 3.569-5.771-2.058 5.231-11.02 6.785-12.491m-34.9-29.108c1.39-.076 2.74.131 4.113.046a10.275 10.275 0 0 1 2.78-.155l.4.584q.26 1.958 2.056.426a13.554 13.554 0 0 1 4.34 1.517c-4.3 3.1-9.526 6.7-14.794 7.741-8.326 1.643-6.026-9.766 1.1-10.159m-127.645 69.678c-.863 1.737-3.347-2.6-3.961-3.411 1.146 0 4.834 1.659 3.961 3.411m66.9-45.719a168.462 168.462 0 0 1 21.1-9.9c1.222 5.886-4.737 13.485-8.406 17.513-2.967 3.258-6.545 6.636-10.569 8.51-4.35 2.027-9.1 1.137-8.893-4.551a23.649 23.649 0 0 1 1.4-7.322c1.091-2.449 3.153-2.958 5.372-4.251m-87.45-107.07c.963-.057 11.422-1.409 11.366-.107-.165 3.912-10.317.84-11.366.107m-73.962 75.527c5.524-6.816 14.443-14.174 14.573-23.7.193-14.018-15.365-7.024-23.186-6.441 4.136-4.063 24.919-21.111 12.626-27.166-3.534-1.74-8.555-.04-12.1.872-6.291 1.618-12.14 4.42-18.32 6.37 4.416-4.7 12.046-10.043 11.8-17.163-.305-8.666-7.419-6.571-13.57-5.3-2.364.489-12.923 4.69-14.906 1.838-.727-1.045.449-2.372.7-3.3a12.062 12.062 0 0 0 .318-3.9c.031-3.392 2.284-7.747.446-10.9a15.315 15.315 0 0 0-1.079 2.238c-.606-1.836-.2-3.783-.805-5.619 15.356 3.927 30.978 6.077 46.431 9.429 7.822 1.7 15.185 4.619 23.115 5.935 8 1.325 15.856 3.355 23.868 4.619 7.311 1.153 14.314 3.073 21.553 4.546 7.057 1.436 14.295-1.711 21.182-3.3 15.427-3.568 30.849-7.223 46.3-10.685 17.826-4 36.37-7.414 53.433-14.079q.5 13.326 2.127 26.573c-7.536-3.562-18.719-8.208-26.337-1.833a10.049 10.049 0 0 0-2.783 10.7c1.311 4.076 5.329 5.97 7.98 9.038-8.068-2.068-28.88-16.65-32.585-1.911-2.616 10.41 10.146 17.135 16.387 22.994-6.2-1.213-14.5-6.168-18.136 1.8-3.145 6.884.643 14.374 4.523 20.052 2.1 3.076 4.467 5.972 6.7 8.952 1.182 1.576 2.336 3.175 3.578 4.705s3.6 3.142 4.468 4.793c1.758 3.331-1.789 3.535-4.547 4.738-3.444 1.5-6.4 4.025-9.55 6.036-7.212 4.6-13.514 8.881-22.037 10.353-8.774 1.514-17.222 3.1-25.88 5.209-8.631 2.106-15.677 4.13-24.5 1.408-4.022-1.241-7.3-2.344-11.565-2.111-4.481.245-7.1.013-10.786-2.763-15.855-11.941-33.065-21.74-49.429-33.013m-28.584-11.988c6.128-3.074 12.3-6.164 18.626-8.806 5.239-2.188 13.2-4.736 18.931-3.777-1.617 4.153-4.567 7.561-7.732 10.619-2.8 2.7-6.3 6.787-9.682 8.674-3.076 1.714-6.654-1-9.686-2.138-3.333-1.249-7.919-1.831-10.457-4.573m1.54 15.511c3.053-1.269 9.616 2.989 12.394 4.1 5.458 2.177 10.946 4.45 15.756 7.883-5.873 6.788-12.525 12.993-20.429 17.353-5.2 2.869-13.965 6.159-18.87.95-6.163-6.545 1.246-19.881 5.609-25.49l.435 2.878c1.392-2.229 2.454-6.569 5.106-7.671m112.1 58.095c-3.809.8-5.1.078-7.619-2.844a69.859 69.859 0 0 0-5.288-5.8c-1.957-1.812-6.788-6.181-.632-3.665 5.61 2.292 10.417 3.439 16.59 2.541 7.058-1.026 13.638-4.011 20.6-5.521-3.815 3.338-7.6 6.71-11.425 10.039-4.038 3.517-7.093 4.171-12.224 5.252m.871 26.848c-8.348 6.283-25.156 5.6-19.5-8.22a25.188 25.188 0 0 1 3.453-5.864 10.62 10.62 0 0 1 1.95-2.236c1.846-1.12 1.335-1.255 3.11.612 1.532 1.611 13.5 14.772 10.986 15.708m-2.475-24.02c.764-.248 3.987-2.116 4.721-1.083s-5.574 4.667-4.721 1.083m60.777 95.818c-1.877 4.491-16.9 10.994-14.1 1.94 1.239-4.011 2.408-7.047 7.085-7.352 2.7-.175 8.669 1.457 7.016 5.412m26.948-60.867c2.473-3.6 10.64-8.471 14.127-3.1 1.68 2.587-2.4 3.912-4.863 3.247-1.324-.358-2.406-1.15-3.846-1.209-1.85-.076-3.659 1.375-5.419 1.061m6.555 3.557c-1.682 1.7-11.824 10.237-13.467 8.921 3.312-4.735 7.115-10.023 13.467-8.921m-16.565 86.365c-3.522.2-1.763-5.108-1.423-7.23.852 1.478 5.336 7.009 1.423 7.23m8.949-9.513c-1.139-2.028-4.209-5.045-3.515-7.654.531-1.994 5.323-4.676 7.329-3.532 2.665 1.521-1.2 11.522-3.814 11.185m83.57-21.259c-1.507 5.191-3.068 3.851-7.792 4.857-4.74 1.009-8.016 5.033-12.188 7.191 1.449-3.064 2.348-6.8 4.775-9.284.561-.574 4-1.708 2.041-3.038-1.713-1.163-4.176 2.61-4.911 3.638-3.614 5.06-6.142 11.239-8.229 17.062a49.245 49.245 0 0 0-2.334 8.775c-.433 2.676.034 5.476-.407 8.082-.711 4.2-6.412 4.219-9.841 5.3a68.222 68.222 0 0 1-9.416 2.569c-2.793.458-5.692-.376-8.4.174-2.931.6-4.248 2.335-7.58 1.941-2.716-.32-5.258-1.569-8.011-1.694-2.577-.116-5.147.775-7.708.05-2.585-.733-2.46-1.016-1.872-3.556l1.1 2.055c1.03-.808 1.743-3.271 2.374-4.427.979-1.791 1.777-2.411 1.414-4.642-.535-3.3-3.506-5.64-4.18-8.774-.7-3.271 1.715-5.945 3.144-8.675 1.954-3.737 1.928-6.509.291-10.374l3.7.979c-1.693-3.674-7.433-2.185-10.311-1.1-1.447.546-3.739 2.7-5.3 2.642-2.139-.075-3.254-2.887-4.173-4.436a142.473 142.473 0 0 0-8.843-13.065c-.865-1.144-2-1.879-1.7-3.184.255-1.106 2.735-2.675 3.54-3.357 3.018-2.552 6.859-3.966 9.694-6.652 4.284-4.059 9.225-6.967 13.6-10.946 4.564-4.145 9.265-7.952 14.021-11.869 4.816-3.967 8.989-8.642 13.77-12.65 1.239 2.245 3.639 10.284 6.384 10.907 3.2.724 3.105-3.062 2.946-5.341-.227-3.247-2.03-6.4-2.231-9.5-.216-3.315 2.974-4.8 5.381-6.714 3.718-2.962 11.947-9.709 7.524-15.262-3.81-4.783-16.2 4.388-19.616 7.145-2.9 2.343-5.145 4.463-8.413 6.311-2.3 1.3-6.153 6.295-8.877 5.834-3.24-.548-4.506-4.087-8.469-3.97-3.873.113-7.164 2.9-9.565 5.7-5.43 6.331-7.3 14.8-12.244 21.4-2.44 3.254-5.6 5.94-8.25 9.019-2.906 3.379-3.523 7.272-6.389 10.579-8.2-10.924-17.134-21.268-25.781-31.833-4.319-5.276-8.547-10.615-12.773-15.965-1.584-2.005-3.37-3.887-4.82-5.993-1.986-2.884-1.629-5.2-2.409-8.418-.345-1.426-1.964-3.134-1.531-4.5.583-1.831 4.677-3.269 6.153-4.017 6.028-3.06 11.5-6.885 17.117-10.623 10.409-6.922 20.939-13.413 32.009-19.325-.191 2.547-1.848 5.187-.735 7.743.518-1.47 1.339-8.02 3.3-8.3-.376.054-.067 8.4.237 9.59.906 3.556 3.535 5.987 7.3 5.963 7.163-.046 13.583-7.838 17.559-13 2.691-3.495 5.277-7.559 6.225-11.933.852-3.927-.085-6.659 4-8.653a126.205 126.205 0 0 1 25.779-9.594c-.4 3.861-1.521 8.613 1.988 11.39 3.873 3.065 8.941.333 12.588-1.694 3.612-2.008 9.182-7.525 13.425-5.922 4.173 1.577 7.077 6.81 9.413 10.285 2.058 3.063 4.3 5.272 1.915 8.686a96.3 96.3 0 0 0-6.552 11.717c-.823 1.6-1.608 2.64-1.026 4.277a23.4 23.4 0 0 0 2.916 4.148c3.717 2.893 8.736-2.609 11.389-4.7.936 8.994 1.145 17.948 1.522 26.97.277 6.608 2.835 13.113-2.588 17.943s-9.946 9.786-13.25 16.324c-1.765 3.493-3.348 7.077-5.257 10.5-1.275 2.285-3.966 5.636-2.319 8.326 1.737-1.649 2.255-4.155 3.7-6.014.867 3.858 1.74 8.138 5.821 9.773 4.7 1.881 9.362-1.374 13.52-3.185-1.491 10.314-4.4 20.336-7.3 30.322m-4.8 11.855c-3.222 6.887-6.133 15.191-12.083 20.262-1.307 1.113-6.858 5.46-8.971 4.732-1.793-.619-.806-4.242-.493-5.795 1.585-7.882 4.328-12.841 10.718-17.868 2.645-2.081 6.041-4.741 9.451-5.255 3.672-.553 2.615 1.277 1.377 3.924m90.89 163.47c-8.355-11.36-20.162-20.19-31.321-28.724-5.054-3.866-10.624-6.765-15.731-10.632a122.274 122.274 0 0 0-18.1-11.884c-12.261-6.248-25.637-10.6-37.208-17.991-5.643-3.6-11.816-7.085-17.121-11.13a77.344 77.344 0 0 1-6.494-6.085c-1.957-1.891-6.158-4.637-6.936-7.4 3.256-.533 5.108-3.692 8.014-4.014.957-.107 6.955 1.48 6.135-1.429a13.272 13.272 0 0 0 4.253-.563c.755-.2 1.65.111 2.414-.159 1.168-.412 1.963-1.6 3.143-2.06.839-.324 3.953.038 4.425-.366 1.289-1.1-.081-1-.85-2.38 2.505-.064 4.226 1.2 6.738-.144.764-.41 1.411-1.355 2.153-1.844 1.314-.869 1.789.478 2.69-1.325.842 2.488.819 1.8 2.85 1.068a19.915 19.915 0 0 1 5.786-1.438c5.5-.435 11.025.232 16.5-.158 2-.144 3.716-.6 5.707-.336 1.753.231 1.224 1.45 2.682-.193.339-.382-.756-1.426-.231-1.975.231-.243.986-.072 1.272-.2 2.561-1.118 2.572.444 3.026 2.479a12.647 12.647 0 0 0 4.339-1.551c-.659-.588-1.762-1.237-1.125-2.312 2.166.821 3.582.442 2.5 2.819 2.18.72 2.587-.219 4.544-.424 1.158-.121 2.774.6 3.738-.327 1.053-1.01-.608-2.106 1.326-2.974a1.913 1.913 0 0 1 .883.913q1.567.474-.564 1.234c3.8 1.972 2.911-.233 4.508-2.565.369-.537 2.022-2.207 2.775-1.4 1.142 1.223-1.189 1.612-.69 2.828.866 2.108 3.889-.594 4.816-1.662.7-.807.988-2.354 1.745-2.957 1.051-.837 2.563.457 3.879.225 6.011-1.054 11.688-9.137 7.16-14.547-1.217-1.454-2.247-1.165-3.7-2.083-1.434-.907-2.238-2.476-3.388-3.772a24.323 24.323 0 0 0-9.515-6.589 161.6 161.6 0 0 0-26.642-7.447c-4.143-.817-8.553-2.066-12.794-2.057-2.5 0-6.262 1.948-8.6 1.017-4.542-1.81 2.126-11.074 3.226-14.067a158.722 158.722 0 0 0 7.27-27.394c.313-1.806.193-4.146.843-5.867.747-1.978.907-1.7 2.505-1.86 2.888-.292 6.045 1.223 9.052.7 3.333-.58 6.935-.31 10.3-1.341a7.378 7.378 0 0 0 4-2.293c.321-.409-.036-.766.167-1.052.063-.091 1.213-1.331 1.25-1.4a9.127 9.127 0 0 1 .167-1.91c1.166.968.591 3 2.556 3.046.351-2.165.354-2.6 1.775-3.819-.108.094 1.07-.908.919-.8a3.033 3.033 0 0 1 .424-1.079 5.1 5.1 0 0 1 2.1-.51c1.535-1.579.9-2.421.9-4.547l3.718 1.931c.3-6.3 4.134-9.746 6.682-14.85 1.086-2.175 2.192-3.875 2.451-6.5.15-1.513-.241-2.848.386-4.275.568-1.294 1.84-1.991 2.371-3.4 1.046-2.774.266-6.315.323-9.2.08-3.995.479-7.977.609-11.97a131.071 131.071 0 0 0-1.7-23.643c-.561-3.706-1.5-7.3-2.236-10.969-.606-3.014-2.057-5.841-2.575-8.645-.216-1.165.118-2.211-.234-3.5-.463-1.694-1.237-3.36-1.812-5.023-1.344-3.886-2.673-7.766-4.184-11.591-2.929-7.414-6.358-14.605-9.616-21.876-3.134-6.992-5.729-14.2-9.788-20.73-4-6.431-8.3-12.754-12.709-18.909-4.59-6.411-10.393-11.919-14.843-18.389-8.357-12.148-20.014-22.158-32.21-30.424C391.948 110.881 364.753 93.85 334.576 88a83.375 83.375 0 0 0-13.789-1.6c-2.876-.071-7.641 1.319-10.364.345-3.05-1.09-2.771-4.515-3.534-7.2-.982-3.454-3.2-5.717-5.711-8.158-2.647-2.57-5.05-5.572-8.351-7.32-3.346-1.77-7.292-2.432-11-2.968-3.31-.479-8.255-.031-11.278-1.474-2.753-1.314-1.394-2.682 1.185-1.557a4.974 4.974 0 0 1 1.071-2.751c.366-.442 2.094-1.061 2.136-1.474.049-.483-1.4-1.857-1.609-2.48a6.978 6.978 0 0 1 .337-4.454c2.6 2.311 3.353 3.335 6.256 1.125a8.444 8.444 0 0 1 3.022-1.815c.385-.128 1.249.267 1.585.045 1.283-.845.1-.646.713-1.644-.154.252.924-2.4.873-1.847.13-1.413.549-.979-.3-2.716-1.671-3.4-5.928-3.536-3.759-7.414.853-1.526 1.6-1.374 1.845-3.586a35.239 35.239 0 0 0-.037-3.762c-.01-2.474.455-4.206-1.863-5.466-2.228-1.212-4.283.118-5.188-2.887-.948-3.153.007-7.2-3.409-9.354-2.5-1.577-6.1-.229-8.858-1s-5.305-3.6-8.11-1.429c-1.993 1.543-3.051 5.337-6.805 3.285-1.695-.925-2.628-4.032-3.7-5.774-1.7-2.777-3.068-3.78-5.688-1.075-1.615 1.668-5.021 5.729-5.229 8.038-.229 2.549 2 3.614-.8 5.122s-4.336.4-6.591 3.446c-2.236 3.021-.505 4.691-3.1 7.581-3.238 3.613-4.962 5.173-4.916 10.041.031 3.339-2.919 6.223-1.2 9.391 1.929 3.55 7.558 5.027 10.971 6.472-1.139 2.105-2.7 3.455-1.373 5.622 1.205 1.963 4.611 2.37 6.722 2.014 1.42-.239 1.471-.024 2.589-1.023.732-.654-.272-1.47 1.236-1.832 1.6-.387 4.168 2.758 5.21 3.545-2.329 3.022-8.725 3.587-12.109 5.119-2.062.935-3.958 2.317-6.058 3.152-1.9.758-4.223.582-5.95 1.754-2.983 2.025-4.224 7.041-6.052 9.991-2.069 3.338-4.076 4.889-8.046 5.582-4.953.864-8.942 1.212-13.562 3.369-5.641 2.634-11.2 5.416-16.742 8.256a252.8 252.8 0 0 0-25.536 14.822c-8.681 5.8-17.126 11.847-25.5 17.9-8.285 5.99-15.241 13.359-22.438 20.6-5.818 5.856-10.923 12.176-16.719 18.03-6.841 6.913-11.873 15.637-18.217 22.97-3.471 4.012-6.791 7.956-8.969 12.682-1.765 3.831-4.834 7.59-6.883 11.609-2.618 5.139-5.1 10.2-8.035 15.164-1.206 2.039-2.64 3.788-3.912 5.734-1.631 2.493-1.535 4.9-1.973 7.773l-1.373-2.1c-.83 1.814-1.834 3.6-2.554 5.455-.459 1.185-.387 2.867-.848 3.9-.578 1.3-1.283 1.128-2 2.212-.771 1.159-1.019 2.716-1.832 3.959-3.512 5.372-4.864 12.189-6.668 18.319-2.421 8.224-2.039 17.677-1.907 26.156a198.721 198.721 0 0 0 1.978 26.78 64.465 64.465 0 0 0 7.911 22.762c3.558 6.132 8.464 9.705 14.748 12.846 2.886 1.442 5.564 1 8.593 1.227 3.318.252 5.581 1.153 9.091.36 1.684-.381 2.481-1.607 3.82-2.016.828-.253 1.274.16 2.069.064a26.969 26.969 0 0 1 4.737-.561c3.838.419 3.194 6.222 3.572 9.184.581 4.565 1.007 9.177 1.791 13.712 1.648 9.539 5.207 18.449 7.31 27.823a102.425 102.425 0 0 0-27.245 6.7c-9.165 3.7-18.432 4.956-28.077 6.8-9.024 1.721-17.7 4.937-24.926 10.763-3.386 2.73-6.9 5.924-4.417 10.419 1.59 2.875 4.455 3.606 6.929 5.277.5-.633-.946-1.973-1.211-2.344 2.08.427 2.016 1.4 3.535 2.242 1.327.738 2.414.712 3.867 1.234 3.548 1.275 5.29 4.454 8.8 5.347 1.1.281 2.546.952 3.674 1.143 1.355.229 2.369-.364 3.743-.113a7.607 7.607 0 0 0 2.4 1.047q.847-.393 1.672-.831c1.973.2 3.192 1.446 4.8 2.466.107-1.285-.047-2.619 1.169-3.458.475 1.25-.292 2.041 1 2.9 1.642 1.09 3.8-.27 5.268-.96.416 4.152 10.03 3.908 13.078 3.849 4.22-.081 8.436-1.756 12.693-.822 2.172.476 4.491.974 6.653 1.592 2.6.744 5.751 1.409 8.314 2.347 1.019.373 2.268 1.569 3.352 1.489.864-.065 1.095-1.338 2.1-1.3 1.137.042 1.52 1.309 2.5 1.69 1.473.57 2.828-.514 4.229.033.5.2 1.186 1.04 1.83 1.315a23.8 23.8 0 0 0 4 .623 33.1 33.1 0 0 0 4.246.188c1.066.077 1.043.794 1.553.84.585.053 1.6-1.959 2.39-2.254 1.145-.43 3.223.594 4.39.773a165.222 165.222 0 0 1-29.701 30.463c-11.923 9.571-24.133 19.129-36.919 27.524-11.609 7.617-22.847 14.217-31.848 24.973-7.589 9.073-19.67 18.78-17.808 31.93S17.664 606.972 29.1 609.48c14.378 3.155 29.179 1.885 43.6 3.659a87.725 87.725 0 0 0 19.168-.292c7.31-.761 13.575-5.532 19.859-8.981 11.3-6.205 20.968-14.507 32.1-20.906 13.94-8.012 27.734-16.5 43.017-21.867 7.11-2.5 14.43-5.345 20.165-10.48a24.111 24.111 0 0 1 2.454-2.547c1.639-1.07 2.079.015 3.03-.309.732-.249 1.441-1.04 2.074-1.277 1.6-.6 2.319-.353 4.115-.353-1.541-.888-2.951-3.179-1.352-5.045 2.739-3.2 3.211 1.912 4.24 3.1.872-1.121.538-2.118.315-3.392l2.212 1.46a9.219 9.219 0 0 1 1.281-6.883c1.2-1.979 1.5-1.7 1.833-4.444 3.74 3.414 4.471-4.873 4.808-7.894.326-2.93 0-5.033 1.931-7.6 2.069-2.751 5.214-4.49 7.84-6.626 4.148-3.377 8.712-7.642 14.448-4.4 4.529 2.557 6.992 8.825 11.241 12.046 2.577 1.954 5.3 2.152 6.94 5.181 1.328 2.449 1.759 5.381 3.013 7.9 3.038 6.1 7.411 13.071 12.4 17.747 4.643 4.352 10.6 4.33 16.038 7.029 5.379 2.673 10.968 5.569 16.663 7.505 6.219 2.116 12.925 3.015 18.98 5.578 3.114 1.319 5.9 3.3 9.041 4.566 3.388 1.361 6.958 2.32 10.392 3.567 13.6 4.942 26.918 11 41.21 13.74 6.339 1.214 12.208 4.515 18.593 5.209a51.519 51.519 0 0 1 7.653 1.361c4.2 1.074 3.314 1.646 4.864 5.152 2.548 5.771 8.771 2.354 13.568 2.5 7.678.232 15.24-1.01 22.906-1.069 13.407-.1 26.316-1.613 39.286-6.015 13.02-4.419 27.844-15.068 17.023-29.782" class="prefix__cls-3"/>
                <path id="prefix__react-path-65" d="M416.321 129.775c.184.184.614.3 0 0" class="prefix__cls-3" transform="translate(-45.255 -14.107)"/>
                <path id="prefix__react-path-66" d="M149.91 404.573c2.912-2.951 15.3-2.355 16.238 2.924 1.044 5.892-10.026 14.792-14.077 17.286-5.214 3.211-11.578 3.813-10.653-4.25.7-6.089 4.347-11.759 8.493-15.961m10.232-6.074c.378 1.632-2.407 1.077-3.173.69-.361-.742 2.8-2.328 3.173-.69m-21.365 10.8c2.471.222 5.3-3.742 7.167-5.093.824 1.274-4.61 8.275-5.208 9.872-1.493 3.991-2.324 9.034-.288 13.015 5.949 11.634 21.172-4.979 24.98-10.782 2.664-4.059 4.508-9.091.746-13.069-1.34-1.417-3.553-1.81-4.8-3.157-1.638-1.771-.349-4.057-3.642-3.67-2.272.267-5 2.317-7.211 3.059a26.756 26.756 0 0 0-7.381 3.477c-.524.373-7.417 6.073-4.364 6.348" class="prefix__cls-3" transform="translate(-15.001 -43.087)"/>
                <path id="prefix__react-path-67" d="M330.926 413.1c-1.553 7.993-9.474 16.193-17.808 16.511-8.3.317-10.987-8.379-9.522-15.31 1.25-5.911 6.358-16.181 13.647-15.049 5.73.888 15.013 7 13.682 13.848m-5.285-13.36c-5.262-4.072-12.533-5.956-18.632-2.725-2 1.059-9.982 5.731-7.553 8.894 3.275-2.538 6.1-6.06 10.359-6.9-.716 3.3-4.8 6.268-6.244 9.481a26.057 26.057 0 0 0-2.329 12.174c.491 7.341 5.408 13.046 13.021 12.036 6.97-.924 13.063-6.266 16.388-12.271 4.439-8.02 1.938-15.309-5.01-20.684" class="prefix__cls-3" transform="translate(-32.502 -42.978)"/>
                <path id="prefix__react-path-68" d="M271.011 433.334c-3.747 5.548-9.46 10.766-16.066 12.48-8.551 2.218-6.149-4.849-3.593-9.921 2.26-4.484 6.136-12.2 12.039-12.156a18.711 18.711 0 0 1 7.491 2.053c3.461 2.112 2.1 4.624.13 7.543m-7.981-12.192c1.345-1.5 7.3-7.919 8.1-2.914 1.71-1.982.361-3.627-1.828-3.836-2.641-.253-5.527 2.688-7.433 4.149a37 37 0 0 0-9.54 10.3c-2.865 4.645-10.171 15.145-3.777 19.754 6.911 4.982 16.971-4.219 21.3-8.965 2.768-3.036 6.433-7.493 5.381-11.945-1.292-5.467-7.652-6.041-12.2-6.541" class="prefix__cls-3" transform="translate(-26.74 -45.043)"/>
                <path id="prefix__react-path-69" d="M229.084 319.995c-3.868 4.413-11.724 10.842-18.2 10.085-5.9-.691-3.6-7.318-1.509-10.525 3.139-4.82 7.344-9.345 13.42-9.609 2.623-.113 6.022-.06 8.054 1.926 2.774 2.713.276 5.793-1.767 8.123m-.411-12.259c-4.53-1.565-6.31-2.162-10.713.327a30.23 30.23 0 0 0-9.1 8.03c-3.631 4.8-7.293 15.6 2.031 16.949 10.227 1.482 34.556-19.506 17.78-25.306" class="prefix__cls-3" transform="translate(-22.284 -33.304)"/>
                <path id="prefix__react-path-70" d="M245.656 337.351a21.3 21.3 0 0 1-10.807 6.294c1.774-3.957 5.734-12.6 10.429-13.808 2.163-.555 4.629.172 4.451 2.637-.128 1.782-2.912 3.69-4.073 4.877m3.788-10.461c-2.436-1.221-1.668-2.055-4.5-1.1a24.114 24.114 0 0 0-6.91 3.572c-1.015.823-4.174 3.741-3.788 5.226.7 2.7 3.057-1.437 3.677-2.232 1.062.865-4.367 8.633-4.69 9.912-1.2 4.761 2.533 5.264 6.2 3.707 4.938-2.1 19.564-14.3 10.018-19.087" class="prefix__cls-3" transform="translate(-25.327 -35.369)"/>
                <path id="prefix__react-path-71" d="M332.509 469.454c.365-3.156.883-6.493 3.779-8.265 2.61-1.6 5.313-1.366 5.7 1.91.359 3.043-2.622 8.447-5.033 10.107-3.358 2.312-4.005-.57-4.445-3.752m4.314 7.182c6.894-4.034 11.24-22.535-1.469-17.349-7.222 2.946-4.566 20.88 1.469 17.349" class="prefix__cls-3" transform="translate(-35.98 -49.826)"/>
                <path id="prefix__react-path-72" d="M271.1 391.765c1.087-2.229 2.331-2.968 4.535-3.943-1.47 1.388-2.972 2.669-4.535 3.943m1.59-5.491c-1.561 1.567-5.14 3.955-4.638 6.647.458 2.456 2.333 2.315 4.035 1.549 3.569-1.6 5.554-8.627 9.287-9.285-4.14-2.624-5.107-2.5-8.683 1.089" class="prefix__cls-3" transform="translate(-29.132 -41.674)"/>
                <path id="prefix__react-path-73" d="M273.778 225.605q.3 11.218.538 22.436c.058 2.629-.569 6.376.219 8.893.348 1.109 3.5 5.916 4.616 6.227 3.911 1.089 2.513-8.715 2.541-11.129.1-8.143-.025-16.3-.057-24.441-.018-4.2 1.167-39.387-4.279-39.216-.938.03-3.249 4.054-3.6 4.86-1.094 2.533-.691 6.289-.666 8.989.074 7.79.478 15.591.685 23.38" class="prefix__cls-3" transform="translate(-29.675 -20.477)"/>
                <path id="prefix__react-path-74" d="M310.663 248.167c.307 2.068.146 5.516 2.473 6.588 2.025.932 2.8-.177 3.559-1.909 1.742-3.986 1.113-10.08 1.081-14.2-.064-8.168-.984-16.3-1.619-24.438-.279-3.57.3-7.156-.146-10.892-.2-1.64-.391-8.235-3.43-7.928-2.748.277-2.5 7.19-2.65 8.971-1.246 14.825-1.462 29.01.732 43.81" class="prefix__cls-3" transform="translate(-33.589 -21.238)"/>
                <path id="prefix__react-path-75" d="M452.431 442.981c-1.165 5.954-20.166 26.689-24.951 15.092-2.838-6.88 3.315-14.37 8.113-18.353 2.97-2.465 6.68-4.884 10.727-4.137 3.436.634 6.851 3.616 6.112 7.4m-9.812-10.68c-1.342.317-12.561 8.195-12.663 8.091-.974-.978 6.1-11.524 6.829-12.447 6-7.6 9.98-1.845 13.731 4.129-.8-3.568-3-8.748-6.669-10.257-4.637-1.9-8.254 2.8-10.485 6.178-3.154 4.778-4.892 9.966-6.644 15.358a33.028 33.028 0 0 1-3.2 7.221c-1.4 2.288-3.84 4.81-3.48 7.7 1.985-1.1 3.04-3.264 4.291-5.044 1.4.565.916 5.015 1.2 6.148a7 7 0 0 0 5.665 5.563c5.605.912 11.656-4.274 15.4-7.8 3.949-3.711 8.2-8.8 8.167-14.511-.036-5.968-5.905-11.812-12.142-10.336" class="prefix__cls-3" transform="translate(-45.655 -45.804)"/>
                <path id="prefix__react-path-76" d="M458.359 324.342c-3.18 4.867-8.761 10.7-14.666 11.833-4.334.83-7.193-2.382-5.452-6.719 1.471-3.665 6.482-5.979 9.766-7.592 2.605-1.28 14.753-4.258 10.352 2.477m-2.34-7.961c-6.515-.246-11.769 4.464-16.627 8.223 1.1-4.318 3.579-9.016 7.073-11.826 4.755-3.825 9.264-1.45 14.27.463-1.235-3.9-6.779-5.3-10.311-4.749-4.466.7-7.677 4.509-9.935 8.2-2.693 4.4-3.615 9.585-6.786 13.711-1.451 1.889-10.44 8.957-8.4 11.846l10.072-10.692c.871 4.213 1.831 9.009 7.209 8.6 4.295-.328 9.193-3.979 12.334-6.769 4.056-3.6 12.038-16.589 1.105-17" class="prefix__cls-3" transform="translate(-46.198 -33.521)"/>
                <path id="prefix__react-path-77" d="M355.847 360.551c-2.76 1.269-8.834 2.994-10.377-.819-2.144-5.3 4.754-14.583 8.036-18.111 2.02-2.171 3.389-3.294 6.205-1.889 2.247 1.122 5.55 4.31 6.412 6.761 1.852 5.261-5.96 12.073-10.276 14.058m6.332-25.431c2.247.507 2.523 3.361-.287 2.264-2.106-.821-2.6-2.914.287-2.264m2.821 4.02c-.839-2.56.868-6.575-3.265-6.76-2.342-.1-6.632 2.276-8.676 3.244a14.688 14.688 0 0 0-6.981 6.272c-1.371 2.671-.392 3.375 1.7 1.158.255.174-4.726 13.021-4.769 14.308-.195 5.883 3.97 9.757 9.818 8.714 5.375-.958 10.22-5.354 13.177-9.791a15.051 15.051 0 0 0 2.838-7.567c.173-4.219-2.64-5.915-3.84-9.579" class="prefix__cls-3" transform="translate(-37.285 -36.13)"/>
                <path id="prefix__react-path-78" d="M396.544 336.33c-2.268-4.368 2.987-11.718 7.692-9.568 9.798 4.477-4.716 15.294-7.692 9.568zm8.8-5.7c-1.051.042-7.7 2.61-6.72 4.35 1.344 2.386 6.196-3.391 6.721-4.352z" class="prefix__cls-3" transform="translate(-43.046 -35.478)"/>
                <path id="prefix__react-path-79" d="M45.408 322.012c-.263-1.86-4.432.84-4.408 2.039.689-1.38 4.955 1.838 4.408-2.039" class="prefix__cls-3" transform="translate(-4.457 -34.934)"/>
                <path id="prefix__react-path-80" d="M300.957 161.329c5.309-.39-1.455-27.172-5.324-24.8-4.194 2.567.453 25.161 5.324 24.8" class="prefix__cls-3" transform="translate(-31.958 -14.824)"/>
                <path id="prefix__react-path-81" d="M312.5 148.714c4.974.712 4.183-10.708 1.508-12.752-4.938-3.773-7.546 11.887-1.508 12.752" class="prefix__cls-3" transform="translate(-33.589 -14.716)"/>
            </g>
        </g>
    </g>
</svg>
