<svg xmlns="http://www.w3.org/2000/svg" width="858" height="644" viewBox="0 0 858 644">
    <defs>
        <style>
            .prefix__cls-3{fill-rule:evenodd}
        </style>
    </defs>
    <g id="prefix__ReadingSideDoodle" transform="translate(34.667 89)">
        <g id="prefix__Group_16" data-name="Group 16" transform="translate(-35 -89)">
            <path id="prefix__Rectangle_627" d="M0 0H858V644H0z" data-name="Rectangle 627" transform="translate(.333)" style="fill:#fff"/>
            <path id="prefix__Path_2262" d="M678 534.488c-3.788 4.38-9.381 7.632-13.672 11.636-4.506 4.207-9.4 7.883-13.886 12.039-19.8-24.2-46.926-39.041-70.425-59.123-11.14-9.522-19.348-22.436-25.354-35.69a119.988 119.988 0 0 1-7.134-21.026c-.8-3.26-1.586-6.51-2.11-9.814-.635-4-.8-4.344-3.5-7.467-1.162-1.344-3.414-5.272-5.69-4.839-1.916.365-5.42 6.2-6.631 7.637-5.823 6.929-11.468 14.068-17.6 20.729-9.379 10.192-17.918 20.221-26.626 31.023-17.814 22.1-37.03 42.9-56.42 63.7-1.438 1.542-4.791 6.064-6.858 6.672-2.512.739-6.6-2.343-9.125-4.065-6.107-4.157-10.92-9.3-16.141-14.456-10.187-10.056-17.086-24.171-21.727-37.6-2.778-8.039-4.584-16.373-7.451-24.384-1.195-3.339-3.9-7.443-2.528-10.351.409-.867 3.015-3.171 3.934-3.347 1.087-.209 2.9 1.281 3.276 1.178 3.606-.987 1.6-4.761 3.75-6.792 1.216-1.152 7.4-.984 9.247-1.617 6.751-2.316 12.808-6.733 19.19-9.371 26.718-11.039 53.762-21.776 76.828-39.8 5.982-4.674 9.957-8.187 17.095-11.208 7.213-3.053 14.464-5.777 21.824-8.441A204.193 204.193 0 0 1 540 373.467c7.253-1.822 17.543-4.132 24.791-1.785 14.233 4.608 18.829 16.335 24.5 28.706a370.573 370.573 0 0 0 26.992 47.981c19.337 29.641 42.854 56.238 61.724 86.119" data-name="Path 2262" transform="translate(-58.891 -59.851)" style="fill-rule:evenodd;fill:#ff9465"/>
            <g id="prefix__Group_15" data-name="Group 15" transform="translate(29.349 75.358)">
                <path id="prefix__Path_2263" d="M161.134 138.179c-.783-.4-6.9 2.091-7.924 2.472-4.1 1.521-7.961 4.048-11.823 6.1q4.44 5.4 8.88 10.809c2.9-7.117 6.63-12.989 10.867-19.385zm2.018 44.279c-1.007.113 7.5 20.546 8.489 22.84 3.613 8.344 7.407 16.607 11.068 24.931 3.547 8.066 8.047 15.486 12.58 23.021 3.877 6.444 7.866 16.445 13.714 21.218-3.693-16.383-3.207-35.221-13.8-48.978-10.98-14.261-21.836-28.187-32.052-43.032zm426.611 218.49c-16.408-25.982-36.947-48.967-54.057-74.486-9.58-14.289-18.9-28.76-26.969-43.97-5.866-11.064-9.512-26.849-18.571-35.308-3.992-3.726-8.258-7.374-13.615-9.044-7.331-2.284-17.426-.02-24.791 1.786-13.724 3.365-27.132 8.591-40.132 14.079-13.186 5.566-24.436 15.565-36.35 23.6-12.78 8.619-26.615 14.9-40.933 20.392-12.467 4.786-23.559 11.656-35.96 16.472-2.471.96-7.514.819-9.587 2.071-2.234 1.348-1.354 5.327-4.066 6.8-1.223.662-1.631-1.739-2.57-1.7-1.149.048-2.2 1.4-3.3 2.25-4.507 3.477-1.746 5.8.039 10.581 5.817 15.59 8.943 31.452 17.11 46.17a94.4 94.4 0 0 0 27.641 30.947c1.722 1.219 7.332 5.942 9.352 5.627 1.819-.282 5.519-5.117 6.775-6.43 5.7-5.959 10.906-12.368 16.6-18.336 8.8-9.223 17.271-18.694 25.81-28.043 9.913-10.853 18.687-23.15 27.616-34.747 4.107-5.335 9.394-9.68 13.959-14.627 6.139-6.651 11.776-13.8 17.6-20.729 1.761-2.1 4.713-7.459 7.45-7.4 1.919.044 5.3 4.562 6.3 5.977 3.73 5.262 3.713 14.764 5.568 21.332 4.526 16.016 12.688 31.659 23.882 44.018 11.131 12.291 25.389 21.031 38.555 30.909 14.262 10.7 27.773 21.656 39.084 35.481 4.489-4.156 9.38-7.833 13.886-12.039 4.292-4.006 9.886-7.256 13.672-11.636zm-211.2 73.507c3.19.033 8.592 1.995 11.445.813-8.464-9.366-16.238-17.4-26.947-24.265-11.113-7.123-22.189-14.181-32.983-21.779-21.753-15.31-37.752-33.467-46.838-58.964-2.34-6.566-3.907-13.452-5.622-20.2-.922-3.635-2.759-20.641-5.877-22.109-1.847-.87-15.75 8.9-17.953 10.119a156.367 156.367 0 0 1-15.645 7.286 247.151 247.151 0 0 1-35.381 11.5c-14.551 3.659-24.463-2.395-33.477-13.832-10.227-12.976-18.725-27.616-28.076-41.242a127.281 127.281 0 0 1-10.915-19.221c-2.055-4.473-10.207-16.54-7.39-21.306 8.036 6.118 10.927 18.283 16.4 26.474 6.822 10.209 14.511 19.835 21.369 30.035 5.767 8.577 11.65 18.97 20.169 25.136 7.494 5.423 14.613 3.756 22.678 1.318 9.775-2.953 19.907-4.409 29.486-8.073 10.367-3.964 20.175-9.587 30.29-14.172 4.715-2.138 10.361-3.353 14.8-6.019 3.83-2.3 3.259-3.508 3.539-8.4.329-5.7.707-11.413.959-17.123.169-3.836-1.905-9.038-.5-11.9-11.483 1.991-22.706 4.657-34.109 7.016-6.243 1.291-12.263 2.888-18.57 3.9-2.4.387-5.69.376-7.843 1.423q-2.576-.74-2.626.94a11.5 11.5 0 0 1-.391 1.8c-3.521 1.6-5.569-1.834-8.623-5.129a72.765 72.765 0 0 1-9.355-13.426c-6.182-10.685-13.307-20.734-19.027-31.719-5.83-11.2-10.566-23.189-15.509-34.808-4.535-10.66-7.439-22.188-12.45-32.595a58.054 58.054 0 0 0-8.38-12.411c-2.731-3.238-6.933-10.224-11.012-11.712-1.078-.393-3.9.268-5.128.18-2.442-.174-4.618-1.071-7.117-.875-5.41.423-11.309 3.845-15.632 6.853 2.794 2.49 9.783 5.518 4.763 10-4.872 4.355-7.563-3.457-9.422-6.88-8.754 7.189-7.489 17.1-8.5 27.258-.528 5.3-1.918 10.525-2.814 15.749-.646 3.759-.193 7.647-.377 11.486-.47 9.753-1.451 19.089-1.4 28.7.052 10.279.752 20.206 1.575 30.41 1.384 17.18 4.557 34.366 7.277 51.409 1.53 9.58 3.625 18.888 5.658 28.313 2.308 10.7 6.577 20.829 8.971 31.5 2.439-3.1 4.274-3.116 8.219-2.705 3.035.316 5.073-.406 4.9 3.806-.115 2.732-2.525 4.818-5.191 5.3-3.477.621-4.659-1.114-6.451-3.747-.419 4.988 2.935 10.2 4.261 15.074 1.255 4.616 2.087 9.141 4.2 13.559 2.059 4.31 3.821 8.562 5.9 12.831.959 1.964 1.857 3.959 2.827 5.918a15.676 15.676 0 0 0 1.8 3.195c1.717 1.96 1.444 1.01 3.454 2.127 4.379 2.433 2.734 1.826 2.837 6.849.1 4.955 2.641 8.6 6.715 11.38 8.645 5.91 17.171 7.554 27 10.54 9.157 2.782 18.8 5.17 28.5 5.115 11.875-.066 23.593-1.623 35.469-1.781 13.1-.174 26.329-.1 39.4.35 5.386.186 10.388.426 15.588 1.8 6.038 1.6 11.88.964 18.1.722 13.277-.517 27.013-1.544 40.117-1.636 9.435-.067 19.39-.725 28.861-.157zm344.3 5.147c2.36 1.247 7.652.735 10.025.389 4.18-.61 4.628-2.267 7.28-5.994a81.555 81.555 0 0 0 10.957-20c5.14-14.231 7.239-28.79 9.5-43.676 2.508-16.541-2.072-33.687-3.711-50.115-.377-3.769-.891-7.5-1.487-11.245-.356-2.236-.449-9.844-1.921-11.781-2.828-3.72-15.976-.719-21.146-.382-14.43.943-28.954 1.163-43.377 1.327-7.69.087-15.423.409-23.037.469a98.949 98.949 0 0 1-10.425-.486c-1.174-.113-2.32-.383-3.5-.449-4.049-.224-3.744-.811-4.791 2.774-1.833 6.281-.423 14.271-.9 20.79-.644 8.711-.992 17.545-.833 26.274.148 8.067-.128 16.115.174 24.2a38.147 38.147 0 0 0 1.374 9.275c1 3.615 2.1 12.061 4.584 14.562.283.285 2.4-.379 2.958.33.865 1.093.706 3.4 1.3 4.111 1.921 2.286 5.892 2.467 8.772 3.494a186.508 186.508 0 0 1 22.6 9.678c6.656 3.4 17.386 6.285 21.388 12.983 1.835 3.071 2.082 7.12 3.769 10.288 1.921 3.609-1.923 1.722 2.784 3.186 2.12.659 5.5 0 7.67 0zM21.2 438.784c-.6 8.334-5.294 16.273-6.928 24.467-.765 3.837-2.062 7.609-2.961 11.423-.862 3.659-3.976 7.993-3.661 11.614 11.495-4.1 23.138-5.125 35.152-6.23 11.387-1.047 23.415-1.464 34.706-1.469 11.506-.006 23.808-1.13 35.655-1.3 12.389-.182 24.966-.5 37.176-1.788-6.385-4.729-14.373-9.169-19.088-15.749-5.125-7.152-7.787-16.113-12.3-23.659-9.05-15.145-14.8-33.937-19.546-50.952-9.577-34.348-20.279-68.063-22.859-103.691-4.909 2.514-8.806 12.267-11.263 17.124-3.137 6.2-4.78 12.923-6.819 19.514-4.2 13.575-7.106 27.651-12.248 41.1-9.828 25.7-16.144 53.4-25.02 79.6zm623.972-200.191c2.126 15.362 6.583 30.923 6.754 46.47.038 3.42-.542 7.219.171 10.592.761 3.6 3.238 6.784 4.667 10.206 2.269 5.432 8.016 16.566 2.474 21.169-.112-4.368-4.11-9.915-6.123-13.734-3.035-5.755-7.022-11.017-10.312-16.629a231.237 231.237 0 0 0-23.477-33.6c-8.644-10.088-18.606-19.036-27.772-28.641-2.754-2.886-24.846-30.665-25.724-30.276 6.853 26.426 18.5 49.419 34.443 71.544 7.816 10.847 17.2 17.984 26.712 27.173 7.923 7.652 22.857 15.835 20.117 28.374 12.386-1.191 24.691-3.093 37.189-3.093-2.055-15.819-3.629-31.387-7.3-46.947-4.166-17.667-6.988-35.863-10.513-53.687-3.6-18.2-9.7-35.812-13.5-53.974-3.635-17.391-6.758-34.752-9.423-52.337-2.2 9.744-1.389 20.446-2.171 30.388a288.478 288.478 0 0 0-.455 30.344c.492 18.977 2.515 37.725 4.235 56.658zm53.672-90.477c.07-8.123 1.644-16.136 2.129-24.24.149-2.486 2.625-19.449.316-20.335-1.9 4.141-2.342 9.439-4.067 13.784s-4.028 8.475-5.682 12.846c-3.582 9.468-4.818 20.181-5.2 30.247-.873 22.768-1.324 45.485.206 68.253.656 9.759 1.159 19.535.979 29.313-.2 10.759-1.845 20.1.156 30.769a257.746 257.746 0 0 1 3.885 31.813c.463 7.525.649 6.993 7.829 6.464 5.183-.382 10.417.026 15.608-.211-2.427-29.329-2.823-58.718-6.7-87.934-1.978-14.905-2.031-30.026-4.488-44.875-1.221-7.377-3.269-14.6-4.447-21.99-1.264-7.929-.642-15.912-.521-23.9zm-525.018-18.457c13.822 1.2 28.524 5.33 42.691 2.6-2.335-.946-8.447-2.251-5.7-5.984 2.8-3.8 7.509 1.019 10.3.522 1.72-.307 5.52-7.5 6.58-8.984 2.406-3.383 2.7-3.972 7.022-4.839 4.191-.839 5.141.07 5.672-4.1.61-4.791-1.048-10.178-.884-15.078.353-10.548 3.756-19.8 6.923-29.722-13.456 2.927-26.614 6.4-40.372 8.286-5.882.807-15.032 2.667-20.375-1.331-1.389-1.04-1.167-2.444-2.3-3.648a18.156 18.156 0 0 0-8.148-4.689c-16.643-3.543-18.266 20.182-9.926 29.06 2.089 2.225 5 3.323 7.134 5.362 2.855 2.719 3.089 5.582 3.506 9.732a43.205 43.205 0 0 1-3.6 22.712zm201.959 112c4.913.932 10.041.719 14.966 1.515 1.75.283 7 1.269 8.536.246 2.35-1.562 3.185-7.292 4.3-9.96 1.954-4.693 4.719-8.787 6.582-13.566 7.614-19.52 14.714-39.117 23.923-57.97-3.529-.917-6.24-.953-9.8-1.427-3.706-.494-7.065-2.685-10.6-3.627-3.36-.895-6.88-.667-10.209-1.707-1.834-.573-3.408-1.846-5.216-2.292-2.882-.709-6.245-1.123-7.959.769-1.757 1.94-2.373 7.261-3.329 9.767-2.546 6.677-5.5 13.122-7.636 19.952-1.924 6.161-3.752 12.256-5.446 18.473-1.789 6.563-5.316 11.973-7.465 18.242-1.634 4.772-3.176 9.651-3.42 14.739-.237 4.965-.96 5.281 4 6.074 2.506.4 6.412 1.889 8.77.771zm323.249 232.377a3.481 3.481 0 0 0 3.618-.238c-11.094-4.686-21.885-11.184-33.459-14.4-10.857-3.015-21.409-6.617-31.868-10.33-8.5-3.017-16.139-5.366-23.823-10.675a44.857 44.857 0 0 1-12.012-11.558c-3.568-5.244-4.362-12.707-8.226-17.43-5.216 5.728-11.343 10.066-17.514 14.617-2.135 1.575-7.256 5.008-7.986 7.445-.922 3.075 1.547 6.017 2.768 9.128 3.127 7.97 4.655 15.935 6.351 24.22.68 3.321 2.148 8.312 4.876 9.7 2.484 1.265 9.677.345 12.768.111 16.125-1.222 31.964-2.473 48.187-1.36 18.357 1.259 38.01 2.128 56.32.766zm32.208-147.677c2.931.01 5.794-.356 8.713-.356-1.685-7.87 2.255-18.053 3.652-25.908 1.563-8.787 2.753-17.874 3.8-26.731a481.049 481.049 0 0 0 3.221-55.88c.027-18.185 3.337-34.8 7.975-52.286 4.979-18.775 13.133-35.659 19.875-53.766-7.4 3.909-11.489 13.057-15.375 20.05a99.4 99.4 0 0 0-10.19 28.56c-3.87 19.15-8.115 38.357-12.58 57.475-4.65 19.906-7.383 40-12.71 59.739-2.6 9.628-6.13 21.473-6.326 31.4-.081 4.107-1.319 12.709.543 16.276 1.741 3.337 5.59 1.765 9.407 1.425zm-442.373-24.7a57.961 57.961 0 0 1-.663 6.008c4.059-.039 9.2-4.251 12.682-6.141 4.241-2.3 8.488-4.844 12.636-7.159 8.008-4.471 17.1-7.417 25.65-11.09 9.823-4.22 18.851-9.318 28.245-14.4 3.281-1.774 26.863-12 26.467-14.789l-15.532-.517c-4.438-.148-11.313.855-15.563-.517a11.281 11.281 0 0 1-5.82-5.688c-.87-2.145 1.085-12.01-.051-12.639-5.794 5.916-9.438 13.779-14.618 20.161-5.725 7.054-13.122 11.173-21.275 14.921-9 4.14-18.322 7.346-27.523 10.893-3.881 1.5-3.8 2.352-4.142 6.607-.378 4.755-.337 9.579-.491 14.347zm467.86 178.913c9.76 1.047 19.762.45 29.6 1.267 3.579.3 8.541.74 4.94 5.543-2.267 3.025-9.531 2.055-12.826 2.265-8.846.563-18.211.26-27.077.129-1.867-.027-3.929-.582-5.816-.457-2.178.143-4.786 1.71-6.77 1.7-1.223-.008-1.662-1.3-2.717-1.416a61.628 61.628 0 0 0-6.914-.446c-35.043.008-69.6-.7-104.559-.735-16.715-.018-33.7-.306-50.406-1.091-3.508-.165-23.489.553-22.936-5.765.284-3.254 6.806-3.712 9.185-4.058 1.763-.256 3.593-.216 5.36-.31 4.694-.252 6.75.878 5.76-4.258-3.756-19.481-10.486-35.581-24.865-49.588-11.758-11.454-25.916-21.843-39.234-31.408-16.17-11.614-29.289-23.828-38.889-41.6-5.606-10.378-10.3-20.988-13.18-32.462-1.036-4.128-1.061-8.823-2.331-12.8-.977-3.064-3.2-5.208-4.516-8.382-16.088 26.872-37.412 49.354-56.963 73.583a288.612 288.612 0 0 1-31.161 32.639c-3.312 2.989-6.4 6.109-9.495 9.325-2.586 2.692-6.692 5.084-8.875 8.07-2.095 2.864-1.579 2.728 1.609 5 4.215 3.006 8.859 5.5 13.14 8.436 6.842 4.687 14.311 8.646 20.429 14.286 6.617 6.1 12.4 13.165 18.181 20.043 3.855 4.584 8.913 10.467 9.882 16.263.321 1.918 1.54 6.661-.069 8.065-1.375 1.2-1.237.745-2.944.013-2.237-.959-2.9-3.16-5.628-4.209-6.993-2.683-15.454-1.762-22.73-1.794s-14.617.785-21.893.755c-16.613-.068-32.872 1.277-49.481 2-17.64.766-35.5-1.073-53.076-.813-13.026.193-26.4-.781-39.785-.057-6.885.371-13.647-.49-20.361-.586-8.79-.127-17.817 1.069-26.682 1.239-14.55.281-28.923.279-43.562.629-31.489.754-62.808 1.532-94.315 2.031-4.2.066-8.8-.076-12.957.4-4.408.5-2.132 1.44-5.157 3.027-8.467 4.434-6.512-12.032-6.309-15.27 1.089-17.354 5.494-34.375 10.789-50.851 5.023-15.626 9.1-31.981 13.355-47.945 4.656-17.473 10.723-34.23 16.232-51.531 5.645-17.728 10.241-36.148 20.494-51.863 2.335-3.579 4.749-7.43 8.505-9.687 4.211-2.53 4.392-1.052 4.389-5.682 0-4.36.266-10.186-.763-14.347-.93-3.759-.787-1.53-2.88-4.23-1.7-2.2-3.487-3.7-4.709-6.364-7.51 7.615-24.7 3.6-31.957-1.887-8.881-6.712-15.646-18.035-18.124-28.818-1.991-8.66.452-25.166 10.037-29.331 4.672-2.03 21.834-3.565 22.521-10.181.354-3.415-5.686-8.218-7.08-11.154a65.937 65.937 0 0 1-5.781-18.641c-1.4-11.641 3.882-24.657 12.3-32.52 15.443-14.425 42.614-21.827 62.478-12.675-4.2-16.035-6.732-29.869-4.618-46.549 1.821-14.37 10.3-22.41 21.966-29.568C147.4 3.736 174.472-1.086 197.236 2.466c5.173.808 10.137 2.539 14.927 3.917 6.958 2 15.288 1.335 21.858 4.587 4.764 2.357 8.381 7.053 12.565 10.188 4.884 3.66 8.943 9.123 12.337 14.176 7.258 10.8 4.422 30.855-1.653 41.7a17.98 17.98 0 0 1-5.07 5.866c-2.244 1.652-5.664 2.166-6.821 4.308-2.962 5.488-.1 17.37.29 23.3.46 6.888-3.022 12.062-10.832 12.611-4.518.319-4.662-2.3-6.826 3.091-1.4 3.5-2.676 7.3-4.7 10.509-4.172 6.605-11.813 5.96-18.772 5.782-8.057-.208-15.993-1.481-24.054-2.284 2.129 6.822 7.957 12.116 11.6 18.193 4.921 8.219 7.882 15.033 8.682 24.609.614 7.357-.711 13.168-5.746 18.643-2.084 2.267-3.931 2.378-3.414 4.993.315 1.595 3.073 4.226 4.049 5.5 2.582 3.368 5.58 6.458 7.852 10.055 8.744 13.838 11.327 34.932 11.349 51.04 0 .739.395 2.309.069 3.073-.242.564-2.076 2.351-2.1 2.5a5.83 5.83 0 0 0 4.829 5.973c3.328.368 9.424-2.409 12.519-3.321 4.954-1.461 10-2.539 14.947-4.039 7.984-2.423 15.931-4.355 24.047-6.253 3.668-.857 7.356-1.571 11.035-2.373 4.191-.912 6.138-2.676 8.3 1.588 1.856 3.659.7 4.323 5.2 2.479 4.464-1.832 8.825-4.1 13.183-6.171 7.686-3.646 16.84-6.9 23.47-12.279 11.06-8.98 15.155-23.28 25.74-32.809 2.947-2.653 4.706-2.7 6.569-6.375 1.995-3.934 3.024-8.978 4.072-13.21 1.837-7.409 3.145-14.845 4.811-22.247 2.075-9.222 6.561-17.574 9.834-26.37 1.275-3.427 1.936-7.783 3.993-10.863.545-.817 1.587-1.277 2.012-1.953 1.463-2.32 1.448-2.958 1.827-5.749 1.774-13.044 9.559-6.182 18.067-3.191 3.585 1.26 20.606 9.434 14.107 14.869 7.748 2.248 20.158 1.026 20.054 12.13-.054 5.689-3.456 11.776-5.283 17.1-1.623 4.729-3.191 9.476-4.838 14.2-3.61 10.342-7.99 20.374-11.512 30.748-1.606 4.728-2.931 9.566-5.166 14.028-1.971 3.936-6.745 8.275-7.532 12.579 20.647-8.809 39.749-21.545 62.86-20.733 10.12.355 19.3 4.609 24.892 13.506 7.007 11.153 11.617 23.639 18.466 34.9 24.914 40.945 54.628 78.143 81.978 117.393 2.1 3.016 4.8 5.868 5.531 9.6.475 2.432-.447 4.864.123 7.2 1.183 4.855 7.161 10.917 11.215 13.707 7.77 5.348 20.4 12.892 30.1 12.224-6.085-14.624-6-30.648-5.721-46.247a400.237 400.237 0 0 1 3.772-44.182 59.772 59.772 0 0 1 1.758-9.61c1.094-3.69 2.6-3.34-.681-6.656-5.045-5.107-11.045-9.309-16.131-14.479-11-11.181-22.272-19.945-30.93-33.3-8.233-12.7-16.918-25.767-23.013-39.674-6.274-14.316-8.782-29.606-11.9-44.767-1.264-6.152-5.872-13.021-4.947-19.446 1.171-8.12 4.936-2.207 6.469 2.163 4.677 13.339 15.63 25.277 24.7 36 9.8 11.589 21.788 21.285 32.018 32.536 11.14 12.254 18.771 26.338 28.677 39.419 0-16.234-5.543-32.765-7.81-48.825-1.995-14.135-2.621-28.315-3.883-42.512-2.864-32.249-.389-65.447 3.63-97.465 1.91-15.206.827-30.054.885-45.312.018-4.856-1.992-16.048.57-20.357 4.906-8.254 7.768 9.794 8.016 12.485 1.483 16.03-1.177 31.881.182 47.841 1.42 16.668 4.5 32.867 7.126 49.342 2.842 17.838 7.468 35.274 11.9 52.77 4.651 18.37 8.562 37.123 13.732 55.346 1.394-5.728-.562-12.765-.948-18.6-.552-8.349-1.629-16.7-1.722-25.069-.149-13.34-.253-26.928.5-40.206.744-13.088.519-26.8 4.533-39.411a133.806 133.806 0 0 1 7.433-17.461c3.373-6.952 4.565-13.692 6.432-21.085 1.6-6.332 3.941-12.5 5.007-18.955.662-4.017 2.511-15.874 7.11-6.89 2.67 5.214 1.516 12.944 1.591 18.545.1 7.181-1 14.164-1.172 21.315-.328 14.03-.564 28.044-1.61 42.051a154.63 154.63 0 0 0 2.656 42.346c3.06 15.85 3.955 31.735 5.541 47.778.818 8.284 2.2 16.522 2.862 24.817.352 4.393-1.454 16.991 1.694 20.119.3-7.609 2.485-15.225 4.137-22.639 1.958-8.784 2.749-18.018 4.192-26.927 2.337-14.435 6.872-28.219 9.872-42.492 6.184-29.422 11.323-67.236 37.24-86.494a100.561 100.561 0 0 1 10.784-6.453c2.075-1.174 5.159-4.211 7.534-4.741 2.592-.579 3.673-.129 4.724 2.878 1.465 4.192-1.214 6.15-3.716 9.195-8.656 10.535-12.354 24.041-17.7 36.4-12.239 28.293-17.655 58.135-17.717 88.719a447.745 447.745 0 0 1-2.844 47.365c-1.837 17.126-4.256 35.238-9.46 51.713 5.218 1.17 10.88-.574 12.3 5.492.348 1.49-.281 3.252.1 5.191.374 1.885 1.274 3.76 1.806 5.614a80.442 80.442 0 0 1 2.217 11.556c2.069 15.218 5.621 29.692 6 45.122.348 14.263-2.444 28.713-5.017 42.7-2.592 14.089-10.026 26.1-15.878 38.841 2.519 0 5.037.026 7.556.052z" class="prefix__cls-3" data-name="Path 2263" transform="translate(0 -.942)"/>
                <path id="prefix__Path_2264" d="M502.87 531.251c-2.776.785-16.175 2.266-16.172 6.47 0 2.522 13.383 2.472 15.751 2.746l.421-9.216m29.576 29.013c7.721 1.468 18.2-.6 23.139-7.4 2.307-3.181 3.4-8.018 4.152-11.814.718-3.617 2.931-12.644 1.425-16.035-1.849-4.164-19.59.188-24.756.666a175.98 175.98 0 0 1-27.353.342c0 9.313-.476 18.389 5 26.4 3.952 5.783 11.373 7.148 18.393 7.84m-1.552 11.5c-8.39-3.071-17.2-1.075-22.661-10.082a35.754 35.754 0 0 1-3.392-7.28 21.94 21.94 0 0 1-.955-3.417q.64-3.766-2.759-2.124c-4.447-.865-9.323 2.188-14.007 1.288-11.361-2.182-9.3-18.455-1.673-24.089a14.631 14.631 0 0 1 4.734-1.973c3.8-1.211 5.857.142 9.333-.2 2.809-.278 3.581-3.223 6.6-4.521 1.976-.849 4.72-.783 6.8-.869 10.874-.447 21.783-.443 32.727-1.151 5.1-.33 10.615.478 15.615-.394 2.341-.409 2-1.967 4.222-.6 2.3 1.416 1.3 6.65 1.188 8.737-.67 12.069-1.389 25.013-7.854 35.564-5.915 9.654-17.555 10.642-27.918 11.113" class="prefix__cls-3" data-name="Path 2264" transform="translate(-77.365 -84.008)"/>
                <path id="prefix__Path_2265" d="M12.467 586.491l8.088-.086-8.088.086" class="prefix__cls-3" data-name="Path 2265" transform="translate(-2.013 -95.407)"/>
                <path id="prefix__Path_2266" d="M906.292 278.134l-.017-7.773.017 7.773" class="prefix__cls-3" data-name="Path 2266" transform="translate(-146.326 -44.379)"/>
                <path id="prefix__Path_2267" d="M87.463 292.329l-.025 7.571q.011-3.791.025-7.571" class="prefix__cls-3" data-name="Path 2267" transform="translate(-14.118 -47.926)"/>
                <path id="prefix__Path_2268" d="M355.037 583.093q3.221.005 6.432.012c-2.151 0-4.291-.007-6.432-.012" class="prefix__cls-3" data-name="Path 2268" transform="translate(-57.324 -94.873)"/>
                <path id="prefix__Path_2269" d="M199.54 582.479q3.221.01 6.432.022c-2.151-.006-4.291-.014-6.432-.022" class="prefix__cls-3" data-name="Path 2269" transform="translate(-32.217 -94.773)"/>
                <path id="prefix__Path_2270" d="M759.4 457.388l-.283 5.11.283-5.11" class="prefix__cls-3" data-name="Path 2270" transform="translate(-122.565 -74.576)"/>
                <path id="prefix__Path_2271" d="M901.477 572.741l-4.978-.052a6.119 6.119 0 0 1 4.978.052" class="prefix__cls-3" data-name="Path 2271" transform="translate(-144.747 -93.112)"/>
                <path id="prefix__Path_2272" d="M726.729 581.839c1.192-.018 2.382-.037 3.562-.057-1.194.018-2.378.038-3.562.057" class="prefix__cls-3" data-name="Path 2272" transform="translate(-117.337 -94.661)"/>
                <path id="prefix__Path_2273" d="M905.524 303.975l.088-3.861-.088 3.861" class="prefix__cls-3" data-name="Path 2273" transform="translate(-146.204 -49.183)"/>
                <path id="prefix__Path_2274" d="M772.636 109.562q-.147-1.994-.3-3.983.148 1.995.3 3.983" class="prefix__cls-3" data-name="Path 2274" transform="translate(-124.701 -17.774)"/>
                <path id="prefix__Path_2275" d="M906.226 284.915l.048-3.991-.048 3.991" class="prefix__cls-3" data-name="Path 2275" transform="translate(-146.318 -46.085)"/>
                <path id="prefix__Path_2276" d="M459.541 579.88c1.059.016 2.118.031 3.168.044-1.061-.017-2.115-.03-3.168-.044" class="prefix__cls-3" data-name="Path 2276" transform="translate(-74.197 -94.354)"/>
                <path id="prefix__Path_2277" d="M784.847 582.471l3.1.063-3.1-.063" class="prefix__cls-3" data-name="Path 2277" transform="translate(-126.72 -94.772)"/>
                <path id="prefix__Path_2278" d="M918.157 470.086l-.222-3.5.222 3.5" class="prefix__cls-3" data-name="Path 2278" transform="translate(-148.208 -76.061)"/>
                <path id="prefix__Path_2279" d="M896.037 583.823c.843-.005 1.685-.01 2.518-.012-.845.006-1.682.009-2.518.012" class="prefix__cls-3" data-name="Path 2279" transform="translate(-144.673 -94.989)"/>
                <path id="prefix__Path_2280" d="M759.119 582.522l2.495-.06-2.495.06" class="prefix__cls-3" data-name="Path 2280" transform="translate(-122.566 -94.771)"/>
                <path id="prefix__Path_2281" d="M535.431 581.771c.919-.005 1.837-.01 2.747-.017l-2.747.017" class="prefix__cls-3" data-name="Path 2281" transform="translate(-86.45 -94.656)"/>
                <path id="prefix__Path_2282" d="M282.822 581.77l2.61.02c-.876-.005-1.743-.013-2.61-.02" class="prefix__cls-3" data-name="Path 2282" transform="translate(-45.664 -94.659)"/>
                <path id="prefix__Path_2283" d="M221.371 581.91l2.662-.148-2.662.148" class="prefix__cls-3" data-name="Path 2283" transform="translate(-35.742 -94.658)"/>
                <path id="prefix__Path_2284" d="M514.811 177.216l-3.975-.343c1.327.093 2.729-.692 3.975.343" class="prefix__cls-3" data-name="Path 2284" transform="translate(-82.479 -29.253)"/>
                <path id="prefix__Path_2285" d="M917.595 573.373l-3.919-.4 3.919.4" class="prefix__cls-3" data-name="Path 2285" transform="translate(-147.521 -93.239)"/>
                <path id="prefix__Path_2286" d="M809.627 186.913l-.263 3.431.263-3.431" class="prefix__cls-3" data-name="Path 2286" transform="translate(-130.679 -30.906)"/>
                <path id="prefix__Path_2287" d="M906.617 243.2l.267-3.251-.267 3.251" class="prefix__cls-3" data-name="Path 2287" transform="translate(-146.381 -39.469)"/>
                <path id="prefix__Path_2288" d="M809 208.087l-.282 3.424.282-3.424" class="prefix__cls-3" data-name="Path 2288" transform="translate(-130.575 -34.325)"/>
                <path id="prefix__Path_2289" d="M905.952 295.426l-.024-3.31a2.918 2.918 0 0 1 .024 3.31" class="prefix__cls-3" data-name="Path 2289" transform="translate(-146.27 -47.892)"/>
                <path id="prefix__Path_2290" d="M759.372 485.195c-.01 1.107-.019 2.215-.031 3.316a2.974 2.974 0 0 1 .031-3.316" class="prefix__cls-3" data-name="Path 2290" transform="translate(-122.523 -79.066)"/>
                <path id="prefix__Path_2291" d="M858.7 331.826l-.383-3.358.383 3.358" class="prefix__cls-3" data-name="Path 2291" transform="translate(-138.583 -53.761)"/>
                <path id="prefix__Path_2292" d="M35.917 209.843c-.866 1.145-2.046.361-3.076.5l3.076-.5" class="prefix__cls-3" data-name="Path 2292" transform="translate(-5.303 -34.608)"/>
                <path id="prefix__Path_2293" d="M546.67 518.591h-3.283 3.283" class="prefix__cls-3" data-name="Path 2293" transform="translate(-87.734 -84.458)"/>
                <path id="prefix__Path_2294" d="M755.8 215.451l.306 2.789-.306-2.789" class="prefix__cls-3" data-name="Path 2294" transform="translate(-122.03 -35.514)"/>
                <path id="prefix__Path_2295" d="M110.216 105.114l-3.3.065a2.855 2.855 0 0 1 3.3-.065" class="prefix__cls-3" data-name="Path 2295" transform="translate(-17.262 -17.619)"/>
                <path id="prefix__Path_2296" d="M808.984 227.288l-.213 2.923.213-2.923" class="prefix__cls-3" data-name="Path 2296" transform="translate(-130.583 -37.425)"/>
                <path id="prefix__Path_2297" d="M773.046 83.893l.255-2.664c-.086.891-.169 1.778-.255 2.664" class="prefix__cls-3" data-name="Path 2297" transform="translate(-124.815 -13.842)"/>
                <path id="prefix__Path_2298" d="M762.687 81.082l-.258 2.893.258-2.893" class="prefix__cls-3" data-name="Path 2298" transform="translate(-123.1 -13.819)"/>
                <path id="prefix__Path_2299" d="M192.2 4.19l-3.358.407 3.358-.407" class="prefix__cls-3" data-name="Path 2299" transform="translate(-30.49 -1.404)"/>
                <path id="prefix__Path_2300" d="M95.755 106.126l-3.446.352 3.446-.352" class="prefix__cls-3" data-name="Path 2300" transform="translate(-14.904 -17.862)"/>
                <path id="prefix__Path_2301" d="M847.152 108.982l.21-2.69q-.1 1.348-.21 2.69" class="prefix__cls-3" data-name="Path 2301" transform="translate(-136.78 -17.889)"/>
                <path id="prefix__Path_2302" d="M51.453 286.256l1.974.029-1.974-.029" class="prefix__cls-3" data-name="Path 2302" transform="translate(-8.308 -46.946)"/>
                <path id="prefix__Path_2303" d="M762.738 418.442l-.2 2.98.2-2.98" class="prefix__cls-3" data-name="Path 2303" transform="translate(-123.118 -68.288)"/>
                <path id="prefix__Path_2304" d="M843.246 187.087l-.08-2.872q.043 1.439.08 2.872" class="prefix__cls-3" data-name="Path 2304" transform="translate(-136.136 -30.47)"/>
                <path id="prefix__Path_2305" d="M225.86 1.386h-3.06a2.515 2.515 0 0 1 3.06 0" class="prefix__cls-3" data-name="Path 2305" transform="translate(-35.973 -.867)"/>
                <path id="prefix__Path_2306" d="M550.715 270.41l-3.352.086a2.8 2.8 0 0 1 3.352-.086" class="prefix__cls-3" data-name="Path 2306" transform="translate(-88.376 -44.304)"/>
                <path id="prefix__Path_2307" d="M667.85 579.833c.662.013 1.326.028 1.98.044-.666-.013-1.323-.029-1.98-.044" class="prefix__cls-3" data-name="Path 2307" transform="translate(-107.83 -94.346)"/>
                <path id="prefix__Path_2308" d="M697.606 581.209l1.976-.07-1.976.07" class="prefix__cls-3" data-name="Path 2308" transform="translate(-112.634 -94.557)"/>
                <path id="prefix__Path_2309" d="M231.911 581.771l2.061.052-2.061-.052" class="prefix__cls-3" data-name="Path 2309" transform="translate(-37.444 -94.659)"/>
                <path id="prefix__Path_2310" d="M917.46 456.989l-.3-2.839q.148 1.424.3 2.839" class="prefix__cls-3" data-name="Path 2310" transform="translate(-148.084 -74.054)"/>
                <path id="prefix__Path_2311" d="M810.033 267.038l.234 2.7-.234-2.7" class="prefix__cls-3" data-name="Path 2311" transform="translate(-130.787 -43.843)"/>
                <path id="prefix__Path_2312" d="M851.335 248l-.321-2.869.321 2.869" class="prefix__cls-3" data-name="Path 2312" transform="translate(-137.403 -40.305)"/>
                <path id="prefix__Path_2313" d="M238.588 582.446c.7-.011 1.393-.022 2.081-.031-.7.012-1.39.021-2.081.031" class="prefix__cls-3" data-name="Path 2313" transform="translate(-38.522 -94.763)"/>
                <path id="prefix__Path_2314" d="M540.854 582.525l2.023-.091-2.023.091" class="prefix__cls-3" data-name="Path 2314" transform="translate(-87.325 -94.766)"/>
                <path id="prefix__Path_2315" d="M844.628 164.6q-.047-1.455-.091-2.909.047 1.457.091 2.909" class="prefix__cls-3" data-name="Path 2315" transform="translate(-136.358 -26.834)"/>
                <path id="prefix__Path_2316" d="M159.885 583.2l2.028-.015-2.028.015" class="prefix__cls-3" data-name="Path 2316" transform="translate(-25.815 -94.888)"/>
                <path id="prefix__Path_2317" d="M844.307 583.2l2.085.022-2.085-.022" class="prefix__cls-3" data-name="Path 2317" transform="translate(-136.32 -94.889)"/>
                <path id="prefix__Path_2318" d="M862.282 583.1c.674.048 1.348.1 2.013.143l-2.013-.143" class="prefix__cls-3" data-name="Path 2318" transform="translate(-139.223 -94.873)"/>
                <path id="prefix__Path_2319" d="M869.542 583.083c.686.02 1.373.041 2.05.056-.688-.021-1.369-.039-2.05-.056" class="prefix__cls-3" data-name="Path 2319" transform="translate(-140.395 -94.871)"/>
                <path id="prefix__Path_2320" d="M906.792 252.583l-.134-2.861.134 2.861" class="prefix__cls-3" data-name="Path 2320" transform="translate(-146.387 -41.047)"/>
                <path id="prefix__Path_2321" d="M357.484 568.1l6.263-.326-6.263.326" class="prefix__cls-3" data-name="Path 2321" transform="translate(-57.719 -92.4)"/>
                <path id="prefix__Path_2322" d="M207.295 154.369l5.435.471-5.435-.471" class="prefix__cls-3" data-name="Path 2322" transform="translate(-33.469 -25.652)"/>
                <path id="prefix__Path_2323" d="M817.442 248.321q.084 2.594.17 5.182l-.17-5.182" class="prefix__cls-3" data-name="Path 2323" transform="translate(-131.983 -40.821)"/>
                <path id="prefix__Path_2324" d="M862.04 571.692l5.674.344c-1.9.086-3.836.629-5.674-.344" class="prefix__cls-3" data-name="Path 2324" transform="translate(-139.184 -93.032)"/>
                <path id="prefix__Path_2325" d="M848.69 326.834l.042-4.944-.042 4.944" class="prefix__cls-3" data-name="Path 2325" transform="translate(-137.028 -52.699)"/>
                <path id="prefix__Path_2326" d="M842.916 389.587l4.979.066-4.979-.066" class="prefix__cls-3" data-name="Path 2326" transform="translate(-136.096 -63.629)"/>
                <path id="prefix__Path_2327" d="M344.608 355.006q-.063 1.885-.122 3.765c.042-1.259.082-2.511.122-3.765" class="prefix__cls-3" data-name="Path 2327" transform="translate(-55.62 -58.046)"/>
                <path id="prefix__Path_2328" d="M875.82 291.531l-.2 3.746.2-3.746" class="prefix__cls-3" data-name="Path 2328" transform="translate(-141.376 -47.798)"/>
                <path id="prefix__Path_2329" d="M833.63 565.008q1.811-.123 3.62-.242c-.908.727-1.821.787-3.62.242" class="prefix__cls-3" data-name="Path 2329" transform="translate(-134.597 -91.914)"/>
                <path id="prefix__Path_2330" d="M823.993 370.056l.248 4.041-.248-4.041" class="prefix__cls-3" data-name="Path 2330" transform="translate(-133.041 -60.476)"/>
                <path id="prefix__Path_2331" d="M285.578 115.5l.039-3.9-.039 3.9" class="prefix__cls-3" data-name="Path 2331" transform="translate(-46.109 -18.746)"/>
                <path id="prefix__Path_2332" d="M825.736 389.893l4.5-.1a5.211 5.211 0 0 1-4.5.1" class="prefix__cls-3" data-name="Path 2332" transform="translate(-133.322 -63.663)"/>
                <path id="prefix__Path_2333" d="M874.639 401.372c-1.062.009-2.122.018-3.176.029 1.064-.008 2.121-.018 3.176-.029" class="prefix__cls-3" data-name="Path 2333" transform="translate(-140.705 -65.532)"/>
                <path id="prefix__Path_2334" d="M411.779 565.673l4.407.057a4.242 4.242 0 0 1-4.407-.057" class="prefix__cls-3" data-name="Path 2334" transform="translate(-66.485 -92.06)"/>
                <path id="prefix__Path_2335" d="M81.749 570.758l4.474-.4-4.474.4" class="prefix__cls-3" data-name="Path 2335" transform="translate(-13.199 -92.816)"/>
                <path id="prefix__Path_2336" d="M818.059 261.564l.219 4.056-.219-4.056" class="prefix__cls-3" data-name="Path 2336" transform="translate(-132.083 -42.959)"/>
                <path id="prefix__Path_2337" d="M250.517 158.059a4.018 4.018 0 0 1 3.8-.067l-3.8.067" class="prefix__cls-3" data-name="Path 2337" transform="translate(-40.448 -26.164)"/>
                <path id="prefix__Path_2338" d="M769.026 280.2l.312 3.421-.312-3.421" class="prefix__cls-3" data-name="Path 2338" transform="translate(-124.166 -45.968)"/>
                <path id="prefix__Path_2339" d="M895.562 247.793a3.084 3.084 0 0 1 .032-3.329l-.032 3.329" class="prefix__cls-3" data-name="Path 2339" transform="translate(-144.52 -40.198)"/>
                <path id="prefix__Path_2340" d="M818.3 202.194v0" class="prefix__cls-3" data-name="Path 2340" transform="translate(-132.122 -33.373)"/>
                <path id="prefix__Path_2341" d="M872.039 388.842c1.294-.4 2.588-.958 3.876.013l-3.876-.013" class="prefix__cls-3" data-name="Path 2341" transform="translate(-140.798 -63.424)"/>
                <path id="prefix__Path_2342" d="M373.434 567.487l3.905-.364-3.905.364" class="prefix__cls-3" data-name="Path 2342" transform="translate(-60.294 -92.294)"/>
                <path id="prefix__Path_2343" d="M160.589 567.465a3.349 3.349 0 0 1 3.557.04l-3.557-.04" class="prefix__cls-3" data-name="Path 2343" transform="translate(-25.928 -92.269)"/>
                <path id="prefix__Path_2344" d="M451.452 565.452c1.275-.557 2.547-.863 3.806.039l-3.806-.039" class="prefix__cls-3" data-name="Path 2344" transform="translate(-72.891 -91.938)"/>
                <path id="prefix__Path_2345" d="M112.964 368.829l.287 3.451q-.145-1.728-.287-3.451" class="prefix__cls-3" data-name="Path 2345" transform="translate(-18.239 -60.278)"/>
                <path id="prefix__Path_2346" d="M465.988 289.664a4.049 4.049 0 0 1 3.737.068l-3.737-.068" class="prefix__cls-3" data-name="Path 2346" transform="translate(-75.238 -47.427)"/>
                <path id="prefix__Path_2347" d="M818.036 330.615q.1 1.688.208 3.373-.1-1.689-.208-3.373" class="prefix__cls-3" data-name="Path 2347" transform="translate(-132.079 -54.108)"/>
                <path id="prefix__Path_2348" d="M111.937 209.523c-.1.906-.208 1.814-.311 2.715.1-.908.207-1.811.311-2.715" class="prefix__cls-3" data-name="Path 2348" transform="translate(-18.023 -34.557)"/>
                <path id="prefix__Path_2349" d="M25.248 523.014q-.1 1.324-.192 2.642.1-1.326.192-2.642" class="prefix__cls-3" data-name="Path 2349" transform="translate(-4.046 -85.172)"/>
                <path id="prefix__Path_2350" d="M849.313 337.191l-.211-2.733.211 2.733" class="prefix__cls-3" data-name="Path 2350" transform="translate(-137.094 -54.728)"/>
                <path id="prefix__Path_2351" d="M740.4 563.523l3.352.023-3.352-.023" class="prefix__cls-3" data-name="Path 2351" transform="translate(-119.544 -91.713)"/>
                <path id="prefix__Path_2352" d="M344.011 364.264l.626 1.994q-2.092.506-.626-1.994" class="prefix__cls-3" data-name="Path 2352" transform="translate(-55.446 -59.541)"/>
                <path id="prefix__Path_2353" d="M444.079 287.952l3.406-.014c-1.134.538-2.268.908-3.406.014" class="prefix__cls-3" data-name="Path 2353" transform="translate(-71.7 -47.217)"/>
                <path id="prefix__Path_2354" d="M113.723 375.329l.114 3.016q-.059-1.511-.114-3.016" class="prefix__cls-3" data-name="Path 2354" transform="translate(-18.361 -61.327)"/>
                <path id="prefix__Path_2355" d="M128.047 568.872h3.287-3.287" class="prefix__cls-3" data-name="Path 2355" transform="translate(-20.674 -92.576)"/>
                <path id="prefix__Path_2356" d="M772.313 387.982l.122 2.775c-.039-.929-.081-1.852-.122-2.775" class="prefix__cls-3" data-name="Path 2356" transform="translate(-124.696 -63.37)"/>
                <path id="prefix__Path_2357" d="M100.3 570.12a2.832 2.832 0 0 1 3.239-.012l-3.239.012" class="prefix__cls-3" data-name="Path 2357" transform="translate(-16.194 -92.695)"/>
                <path id="prefix__Path_2358" d="M134.139 194.086c.058.946.117 1.893.177 2.833-.058-.948-.117-1.89-.177-2.833" class="prefix__cls-3" data-name="Path 2358" transform="translate(-21.658 -32.064)"/>
                <path id="prefix__Path_2359" d="M93.615 570.336l3.36.014a2.678 2.678 0 0 1-3.36-.014" class="prefix__cls-3" data-name="Path 2359" transform="translate(-15.115 -92.813)"/>
                <path id="prefix__Path_2360" d="M833.4 175.825l.026-2.88-.026 2.88" class="prefix__cls-3" data-name="Path 2360" transform="translate(-134.56 -28.651)"/>
                <path id="prefix__Path_2361" d="M220.054 156.339l3.214.419-3.214-.419" class="prefix__cls-3" data-name="Path 2361" transform="translate(-35.53 -25.97)"/>
                <path id="prefix__Path_2362" d="M107.278 255.238c.014.9.029 1.8.045 2.688q-.021-1.348-.045-2.688" class="prefix__cls-3" data-name="Path 2362" transform="translate(-17.321 -41.938)"/>
                <path id="prefix__Path_2363" d="M841.973 254.557l-.176-2.738.176 2.738" class="prefix__cls-3" data-name="Path 2363" transform="translate(-135.915 -41.386)"/>
                <path id="prefix__Path_2364" d="M543.934 569.058l3.966.359-3.966-.359" class="prefix__cls-3" data-name="Path 2364" transform="translate(-87.823 -92.607)"/>
                <path id="prefix__Path_2365" d="M538.254 528.235c-.715.012-1.429.023-2.137.038.717-.009 1.427-.023 2.137-.038" class="prefix__cls-3" data-name="Path 2365" transform="translate(-86.561 -86.015)"/>
                <path id="prefix__Path_2366" d="M538.738 568.434l3.327.328-3.327-.328" class="prefix__cls-3" data-name="Path 2366" transform="translate(-86.984 -92.506)"/>
                <path id="prefix__Path_2367" d="M298.355 478.059c1.443 8.154-11.229 16.128-12.233 4.537-.367-4.239 2.467-7.219 5.641-9.81 4.5-3.677 7.021-.156 6.593 5.273" class="prefix__cls-3" data-name="Path 2367" transform="translate(-46.192 -76.818)"/>
                <path id="prefix__Path_2368" d="M133.891 360.728c2.985 1.222 25.793 8.654 13.946 12.392-3.136.989-7.876 1.137-10.595-.606-3.27-2.1-6.569-8.289-3.351-11.786" class="prefix__cls-3" data-name="Path 2368" transform="translate(-21.405 -58.97)"/>
                <path id="prefix__Path_2369" d="M139.869 229.035c7.741-.9 14.874 11.816 5.33 11.4-6.947-.3-16.29-11.4-5.33-11.4" class="prefix__cls-3" data-name="Path 2369" transform="translate(-21.77 -37.7)"/>
                <path id="prefix__Path_2370" d="M171.681 266.222c6.464 5.64-5.518 18.263-10.275 13.377-2.429-2.5-.189-7.871 1.816-9.959 2.058-2.142 5.719-2.545 8.458-3.418" class="prefix__cls-3" data-name="Path 2370" transform="translate(-25.889 -43.711)"/>
                <path id="prefix__Path_2371" d="M193.429 439.309c-3.816.606-20.6 6.09-17.1-3.871 1.335-3.8 5.058-2.672 8.462-2.5 5.486.28 8.637.018 8.637 6.368" class="prefix__cls-3" data-name="Path 2371" transform="translate(-28.393 -70.582)"/>
                <path id="prefix__Path_2372" d="M181.764 471.188c5.713 3.057-2.638 20.161-7.373 16.522-6.57-5.05 2.416-14.986 7.373-16.522" class="prefix__cls-3" data-name="Path 2372" transform="translate(-27.783 -76.805)"/>
                <path id="prefix__Path_2373" d="M213.214 454.777c2.778-1.135 15.874 11.462 10.888 14.966-2.555 1.8-7.4-1.283-8.936-3.139-2.888-3.482-3.15-7.777-1.952-11.827" class="prefix__cls-3" data-name="Path 2373" transform="translate(-34.317 -74.143)"/>
                <path id="prefix__Path_2374" d="M121.907 332.006c2.839.466 7.741.614 7.925 4.6.161 3.507-4.235 4.643-7.331 4.918-3.212.285-7.463-.621-7.524-4.659-.065-4.356 6.829-4.094 6.93-4.863" class="prefix__cls-3" data-name="Path 2374" transform="translate(-18.564 -54.332)"/>
                <path id="prefix__Path_2375" d="M206.4 539.058c3.024 1.836 17.128 8.445 11.082 13.22-2.262 1.787-9.121-1.9-10.665-3.779-1.842-2.239-3.643-7.484-.418-9.44" class="prefix__cls-3" data-name="Path 2375" transform="translate(-33.038 -87.763)"/>
                <path id="prefix__Path_2376" d="M253.492 480.6c-.437-7.3 11.871-10.2 9.32.156-.719 2.92-1.415 7.351-5.025 7.521-4.266.2-4.421-4.848-4.294-7.677" class="prefix__cls-3" data-name="Path 2376" transform="translate(-40.924 -77.261)"/>
                <path id="prefix__Path_2377" d="M206.114 329.536c.086 5.534-10.519 10.415-10.6 1.643-.073-7.839 11-10.133 10.6-1.643" class="prefix__cls-3" data-name="Path 2377" transform="translate(-31.567 -53.063)"/>
                <path id="prefix__Path_2378" d="M198.626 296.2c2.613.842 6.085 1.275 6.315 4.6.244 3.513-3.02 5.077-5.956 4.88-2.408-.162-5.972-1.945-6.41-4.557-.641-3.835 3.1-4.086 6.051-4.918" class="prefix__cls-3" data-name="Path 2378" transform="translate(-31.081 -48.551)"/>
                <path id="prefix__Path_2379" d="M141.862 415.7c-.044-4.567 9.107-10.055 10.793-4.756.539 1.7-3.774 9.3-5.209 9.868-3.8 1.507-4.326-2-5.584-5.112" class="prefix__cls-3" data-name="Path 2379" transform="translate(-22.905 -66.726)"/>
                <path id="prefix__Path_2380" d="M229.041 506.756c-3.093 2.768-12.369 10.544-11.676.106.443-6.668 12.492-6.32 11.676-.106" class="prefix__cls-3" data-name="Path 2380" transform="translate(-35.09 -81.776)"/>
                <path id="prefix__Path_2381" d="M411.533 543c1.014-4.389 15.527 3.225 10.684 8.769-1.625 1.861-5.876.177-7.51-.926-3.234-2.183-3.3-4.2-3.174-7.843" class="prefix__cls-3" data-name="Path 2381" transform="translate(-66.44 -88.188)"/>
                <path id="prefix__Path_2382" d="M315.105 429.792c.566-1.956 1.195-5.416 3.062-6.665 3.378-2.259 6.318 1.149 6.319 4.74 0 6.7-7.626 8.813-9.381 1.924" class="prefix__cls-3" data-name="Path 2382" transform="translate(-50.876 -68.928)"/>
                <path id="prefix__Path_2383" d="M272 524.634c3.768.864 12.159 10.024 7.293 13.76-4.683 3.6-10.912-11.024-7.293-13.76" class="prefix__cls-3" data-name="Path 2383" transform="translate(-43.742 -85.434)"/>
                <path id="prefix__Path_2384" d="M275.682 441.946c4.845.387 11.5 8.233 3.974 9.48-5.891.976-12.742-7.558-3.974-9.48" class="prefix__cls-3" data-name="Path 2384" transform="translate(-43.836 -72.083)"/>
                <path id="prefix__Path_2385" d="M328.795 484.69c1.215-4.093 13.231.293 12.556 4.8-.359 2.4-5.272 2.958-7.855 2.325-3.8-.933-4.789-3.427-4.7-7.124" class="prefix__cls-3" data-name="Path 2385" transform="translate(-53.086 -78.722)"/>
                <path id="prefix__Path_2386" d="M159.879 211.4c.087-5.291 10.255-7.448 11-2.116.673 4.817-11.127 9.943-11 2.116" class="prefix__cls-3" data-name="Path 2386" transform="translate(-25.814 -34.02)"/>
                <path id="prefix__Path_2387" d="M324.79 548.818c.733-2.661 1.049-5.863 4.372-6.214 3.805-.4 3.693 2.516 3.246 5.54-1.218 8.227-5.866 8.638-7.618.673" class="prefix__cls-3" data-name="Path 2387" transform="translate(-52.44 -88.329)"/>
                <path id="prefix__Path_2388" d="M131.209 285.283c-5.3 1.2-15.008-9.013-9.075-11.2 4.181-1.545 9.075 8.123 9.075 11.2" class="prefix__cls-3" data-name="Path 2388" transform="translate(-19.42 -44.953)"/>
                <path id="prefix__Path_2389" d="M212.639 379.927c-2.7 1.27-3.319 2.041-5.391-.044-1.8-1.815-1.725-6.874-.176-8.762 5.932-7.232 5.793 5.879 5.567 8.806" class="prefix__cls-3" data-name="Path 2389" transform="translate(-33.245 -60.301)"/>
                <path id="prefix__Path_2390" d="M240.106 364.545c2.813.358 11.173 8.287 6.82 11.439-5.334 3.861-8.352-8.234-6.82-11.439" class="prefix__cls-3" data-name="Path 2390" transform="translate(-38.703 -59.586)"/>
                <path id="prefix__Path_2391" d="M311.447 365.538c-2.045 7.875-7.149 2.576-6.86-3.383.465-9.544 5.754-1.232 6.86 3.383" class="prefix__cls-3" data-name="Path 2391" transform="translate(-49.176 -58.492)"/>
                <path id="prefix__Path_2392" d="M349.65 517.861c3.46 1.431 8.156 14.657 3.214 15.366-5.55.8-3.7-12.612-3.214-15.366" class="prefix__cls-3" data-name="Path 2392" transform="translate(-56.343 -84.34)"/>
                <path id="prefix__Path_2393" d="M298.113 508.973c3.959-1.336 5.409 7.015 3.108 8.567-5.062 3.413-3.995-6.6-3.108-8.567" class="prefix__cls-3" data-name="Path 2393" transform="translate(-48.012 -82.882)"/>
                <path id="prefix__Path_2394" d="M253.468 481.864c-.05 1.109-.1 2.217-.152 3.319.049-1.11.1-2.215.152-3.319" class="prefix__cls-3" data-name="Path 2394" transform="translate(-40.9 -78.528)"/>
                <path id="prefix__Path_2395" d="M411.516 543.253l-.125 3.4q.059-1.708.125-3.4" class="prefix__cls-3" data-name="Path 2395" transform="translate(-66.422 -88.44)"/>
                <path id="prefix__Path_2396" d="M328.782 485c-.022.964-.045 1.929-.07 2.887.022-.967.047-1.927.07-2.887" class="prefix__cls-3" data-name="Path 2396" transform="translate(-53.073 -79.035)"/>
                <path id="prefix__Path_2397" d="M839.8 464.718c8.208-.263 17.364-3.352 25.429-2.37 2.221.271 7.331.83 3.774 4.123-1.7 1.575-9.846.761-12.312 1.283a220.466 220.466 0 0 1-47.627 4.983c-7.233-.124-14.52-.7-21.75-1.086s-7.935-3.318.195-4.252c8.443-.969 17.107-.61 25.592-.62 8.92-.012 17.8-1.466 26.7-2.061" class="prefix__cls-3" data-name="Path 2397" transform="translate(-126.204 -75.346)"/>
                <path id="prefix__Path_2398" d="M870.688 439.838c-.79 2.249-1.483 7.411-4.51 7.75-4.24.474-4.942-6.806-4.786-9.468.19-3.213 1.346-8.551 5.34-7.438 3.373.939 3.711 6.584 3.956 9.156" class="prefix__cls-3" data-name="Path 2398" transform="translate(-139.076 -70.24)"/>
                <path id="prefix__Path_2399" d="M841.872 438.12c.62-2.408.924-7.839 4.33-8.023 3.807-.205 4.895 5.452 4.869 8.163-.025 2.573-.977 7.435-4.008 8.029-4.11.806-4.477-5.417-5.191-8.169" class="prefix__cls-3" data-name="Path 2399" transform="translate(-135.927 -70.169)"/>
                <path id="prefix__Path_2400" d="M789.186 442.731c-1.234 2.895-2.049 6.882-5.867 4.908-2.952-1.526-3.363-7.682-2.807-10.5.577-2.92 1.8-6.269 5.154-4.956 3.869 1.515 3.478 7.361 3.519 10.548" class="prefix__cls-3" data-name="Path 2400" transform="translate(-125.986 -70.459)"/>
                <path id="prefix__Path_2401" d="M827.9 440.015c-3.638 11.029-10.275 3.567-7.755-4.667 2.635-8.607 7.42-.247 7.755 4.667" class="prefix__cls-3" data-name="Path 2401" transform="translate(-132.329 -70.417)"/>
                <path id="prefix__Path_2402" d="M806.812 440.507c-1.01 1.942-2.085 6.131-4.809 5.69-3.339-.542-3.446-6.967-3.08-9.361.32-2.095 1.26-5.586 4.055-5.54 4.038.065 3.768 6.7 3.834 9.211" class="prefix__cls-3" data-name="Path 2402" transform="translate(-128.969 -70.364)"/>
                <path id="prefix__Path_2403" d="M893.857 443.582c-2.708 6.077-6.434.842-5.242-3.474 1.768-6.4 5.088-.729 5.242 3.474" class="prefix__cls-3" data-name="Path 2403" transform="translate(-143.437 -71.322)"/>
                <path id="prefix__Path_2404" d="M814.1 467.577l-8.874-.034a19.474 19.474 0 0 1 8.874.034" class="prefix__cls-3" data-name="Path 2404" transform="translate(-130.01 -76.136)"/>
                <path id="prefix__Path_2405" d="M884.425 462.252l-7.7.049a13.411 13.411 0 0 1 7.7-.049" class="prefix__cls-3" data-name="Path 2405" transform="translate(-141.555 -75.275)"/>
                <path id="prefix__Path_2406" d="M849.807 465.212l-6.159.413 6.159-.413" class="prefix__cls-3" data-name="Path 2406" transform="translate(-136.214 -75.84)"/>
                <path id="prefix__Path_2407" d="M790.886 443.967l-.056-4.419a4.885 4.885 0 0 1 .056 4.419" class="prefix__cls-3" data-name="Path 2407" transform="translate(-127.686 -71.696)"/>
                <path id="prefix__Path_2408" d="M810.091 474.738l3.562.032-3.562-.032" class="prefix__cls-3" data-name="Path 2408" transform="translate(-130.796 -77.378)"/>
                <path id="prefix__Path_2410" d="M797.068 467.831l-5.03.413 5.03-.413" class="prefix__cls-3" data-name="Path 2410" transform="translate(-127.881 -76.263)"/>
                <path id="prefix__Path_2411" d="M824.121 467.557l-4.968.01a6.116 6.116 0 0 1 4.968-.01" class="prefix__cls-3" data-name="Path 2411" transform="translate(-132.259 -76.134)"/>
                <path id="prefix__Path_2412" d="M808.335 441.394q-.062-2.3-.12-4.607.062 2.306.12 4.607" class="prefix__cls-3" data-name="Path 2412" transform="translate(-130.493 -71.25)"/>
                <path id="prefix__Path_2413" d="M780.548 438.149q-.014 2.248-.03 4.49.014-2.25.03-4.49" class="prefix__cls-3" data-name="Path 2413" transform="translate(-126.021 -71.47)"/>
                <path id="prefix__Path_2414" d="M861.369 464.547l-4.39.4 4.39-.4" class="prefix__cls-3" data-name="Path 2414" transform="translate(-138.366 -75.732)"/>
                <path id="prefix__Path_2415" d="M894.883 444.05l-.142-3.925.142 3.925" class="prefix__cls-3" data-name="Path 2415" transform="translate(-144.463 -71.789)"/>
                <path id="prefix__Path_2416" d="M820.641 474.779l3.046-.056c-1.022.02-2.034.039-3.046.056" class="prefix__cls-3" data-name="Path 2416" transform="translate(-132.499 -77.375)"/>
                <path id="prefix__Path_2417" d="M872.43 441.087l-.268-2.82.268 2.82" class="prefix__cls-3" data-name="Path 2417" transform="translate(-140.818 -71.489)"/>
                <path id="prefix__Path_2418" d="M829.461 441.073l-.2-2.9.2 2.9" class="prefix__cls-3" data-name="Path 2418" transform="translate(-133.892 -71.475)"/>
                <path id="prefix__Path_2419" d="M202.032 99.049c-4.007-1.052-4.759-6.683-4.115-10.142l2.191-5q-.429-.924-.856-1.849c.366-3.433-.57-4.925 3.375-3.534 7.329 2.584 8.5 20.261-.6 20.526" class="prefix__cls-3" data-name="Path 2419" transform="translate(-31.922 -13.322)"/>
                <path id="prefix__Path_2420" d="M271.4 90.113c3.3-.26 9.3 3.585 6.011 7.3-2.036 2.3-8.745 1.214-11.482 1.7-3.63.638-7.416 1.511-5.452-3.926 1.542-4.27 7.05-5.186 10.923-5.074" class="prefix__cls-3" data-name="Path 2420" transform="translate(-41.969 -15.275)"/>
                <path id="prefix__Path_2421" d="M269.116 118.111c-3.353-2.689-1.857-14.938 3.247-12.734 5.25 2.268-.449 10.966-3.247 12.734" class="prefix__cls-3" data-name="Path 2421" transform="translate(-43.161 -17.699)"/>
                <path id="prefix__Path_2422" d="M197.856 91.005v3.861a3.86 3.86 0 0 1 0-3.861" class="prefix__cls-3" data-name="Path 2422" transform="translate(-31.862 -15.421)"/>
                <path id="prefix__Path_2423" d="M202.863 103.089l2.043-.057c-.687.022-1.364.039-2.043.057" class="prefix__cls-3" data-name="Path 2423" transform="translate(-32.754 -17.363)"/>
                <path id="prefix__Path_2424" d="M695.511 522.762c-.314 5.571-6.3 1.452-5.872-2.275.771-6.764 4.6-.08 5.872 2.275" class="prefix__cls-3" data-name="Path 2424" transform="translate(-111.344 -84.289)"/>
            </g>
        </g>
    </g>
</svg>
